<?xml version="1.0" encoding="UTF-8"?> <svg xmlns="http://www.w3.org/2000/svg" id="Слой_1" data-name="Слой 1" viewBox="0 0 1239.79 782.87"> <path d="M437.77,526.65a14.71,14.71,0,0,0,4.17-1.46c2.64-1.39,3.27-1.46,6.88-.69,4.73,1,6.81.21,6.81-2.3,0-1.66-1.18-2.5-3.54-2.5-.7,0-1.74-.9-2.36-2a5.87,5.87,0,0,0-1.88-2.37c-.49-.14-.7-.55-.42-.83.7-.7,4.1,1.53,3.82,2.5a1,1,0,0,0,.77,1.11c.42.21.83-.21.83-.76,0-.9.42-1,1.95-.7,3.54.77,3.68.84,3.2,2.78s-.49,1.81,1.32.7c2.15-1.46,4.44-1,7.5,1.74,2.29,1.94,2.29,2,1,3-1.94,1.46-5.49,1.32-7.71-.41-1.53-1.25-2-1.39-2.5-.56-1.53,2.43-1.25,2.57,7.85,4.87,3,.69,3.27,1,2.92,2.43a4.21,4.21,0,0,0,3.89,5.14c1.74,0,2-.21,1.88-2s.07-1.87,3-2.08c2.08-.14,3.33.07,3.82.76.34.56,2.29,1.19,4.17,1.46,3.82.56,6.6,2,6.6,3.48,0,.76.69.76,3.54.28,2.3-.42,3.83-.42,4.38.07a10.48,10.48,0,0,0,3.75,1.18l3,.48-1.53,1.6c-1.87,2-1.39,2.09,1.6.28a9.38,9.38,0,0,1,3.89-1.39c1.74,0,2,1.46.56,2.71a6.57,6.57,0,0,0-1.46,2.78,7.34,7.34,0,0,1-2.15,3.54,5.34,5.34,0,0,0-1.67,3.76c.07,1.94.41,1.53,3-3.2,2.15-4,3.61-5.7,5.49-6.81,1.46-.83,2.91-1.32,3.26-1.11s1-.07,1.46-.63c1-1.18,3.48-1.39,3.48-.35,0,.35,1.11.7,2.5.7a10.48,10.48,0,0,1,4.31,1c1,.56,3.47,1.74,5.35,2.57,3.12,1.39,3.33,1.53,1.6,1.81s-1.88.63-2.3,3.13c-.69,4.65-1,5.21-3,5.7a8.47,8.47,0,0,0-2.91,1.32c-1.6,1.32-7.93,2.5-13.76,2.5-7,0-14.6,1.18-16.61,2.5a2.64,2.64,0,0,1-3.13.21c-1.46-.77-1.39-.84,1.18-2.09,2.92-1.46,5.91-4,5.91-4.93a3.5,3.5,0,0,1,1-1.67,4,4,0,0,0,1-2.22c-.07-.84-.48-.56-1.53.9-2.64,3.55-6,6.74-6.81,6.26-1-.7-.83-1.46,1.12-3.76,1-1.18,1.45-2.15,1.11-2.15s-1.81,1.25-3.13,2.85-2.64,2.5-2.92,2.08a1.41,1.41,0,0,1,0-1.39.86.86,0,0,0-.42-1.11c-.48-.35-.62,1-.27,4.59.55,6.53.83,7.36,1.87,6.32a2.87,2.87,0,0,1,1.81-.83,10.31,10.31,0,0,0,3.47-1.74c4.94-3.34,5.91-1.39,1.67,3.34-1.46,1.59-3.33,4-4.24,5.14-1.6,2.29-3.19,3-3.68,1.53-.21-.63-.63-.63-1.74,0a11,11,0,0,1-4,.76c-1.39,0-2.5.35-2.5.77s1.95.69,6,.55c5.07-.21,6.18-.48,6.95-1.67.55-.76,2.57-3.47,4.44-6a28.68,28.68,0,0,0,3.48-5.35c0-1.25,3.26-1.6,6.74-.77a26.31,26.31,0,0,0,5.21.91c2.29.13,5.84,3.26,4.59,4a3.35,3.35,0,0,1-2.37.2c-1.11-.27-1.8.21-3.12,2.3-.91,1.46-1.88,3-2.16,3.47s-.14.63.77.42c1.87-.49,3.12,2.08,2.57,5.49-.42,2.64-.35,2.71,1.11,2.22a31.39,31.39,0,0,1,5.77-.62,26,26,0,0,0,7.3-1.32c3.82-1.46,4.86-1,4.86,1.67,0,1.87.14,2.08,1.74,1.66,1.32-.34,1.73-.14,1.73.7s.77,1.11,3.76,1.11a23.52,23.52,0,0,0,5.7-.69c2.08-.84,3-.42,1.8.83s-1,1.95,1.6,1.95c1.67,0,2.57.41,3.13,1.38a1.55,1.55,0,0,0,1.74,1,1.07,1.07,0,0,1,1.45.69c.56,1.46,4.24,1.46,7.93,0a9.56,9.56,0,0,1,4.51-.69,13.39,13.39,0,0,0,5.42-.56c4.52-1.25,10.22-1.94,10.22-1.25,0,.28-2.29,1.67-5.07,3.06a85.31,85.31,0,0,0-11.47,8.13c-4.86,4.17-7.16,5.7-9,6-7.72,1.11-11.26,2.08-15.5,4.24l-4.73,2.36-1.94-1.6a27,27,0,0,0-4-2.85,16.28,16.28,0,0,1-4-4c-2.37-3.34-4.17-3.48-7.58-.7-2.36,2-2.5,2-3.26.7a3,3,0,0,0-1.88-1.32c-1.25,0-1.32.83-.28,1.88a1.89,1.89,0,0,1,.35,2c-.35.9-1,1-3.41.76s-2.64-.2-1.6.35c2.16,1.25,7,.21,10.22-2.15,4-2.85,5.14-2.78,6.88.62.76,1.53,1.74,2.78,2.08,2.78a18.86,18.86,0,0,1,4.24,2.44,17.28,17.28,0,0,0,4.52,2.43,22.12,22.12,0,0,0,5-2c5.91-2.92,9-3.75,13.76-3.68l4.31.07,5.49-4.87c6.74-6,10.64-8.61,18.63-12.23,7.5-3.4,12.58-4.65,17.72-4.24,2.85.21,4,0,4.58-.76,1-1.25,10.71-2.08,10.71-.9,0,.34-.49.9-1.12,1.11s-.83.69-.62,1.11-.42,1.53-1.39,2.5-1.67,2.23-1.46,2.71c.21.63,1.67-.41,4.1-2.85l3.75-3.75,3.13.9c6.74,2.09,9.45,3.41,10.22,5.08,1.25,2.78.9,3.47-2.09,4.17-3.89.9-3.68,1.87.56,2.57,3.26.55,3.61.76,4.72,3.47,5.14,12.37,8.55,18.28,17.1,29.81a34.93,34.93,0,0,1,5.7,10.85c2.57,7.92,1.52,11.39-5.36,18.2l-1.22,1.21H705.6a33.31,33.31,0,0,0-2.43-4.75c-3.62-5.7-6.81-13.27-7.37-17.3-.28-1.74.14-9.11.9-16.34,1.67-15.77,1.81-16.05,8.76-15.42,6.19.55,17.79-.7,23.7-2.64,6.67-2.16,8.62-3.34,4.79-2.78-5.07.76-7,1.18-7.64,1.73a5.45,5.45,0,0,1-2.43.84c-1.32.14-2-.35-3.27-2.57-2.85-4.94-1.81-6.12,5.42-6.19a6.64,6.64,0,0,1,5.28,1.74,10.93,10.93,0,0,0,5.7,2.29,50.55,50.55,0,0,1,6.26,1.39,12.39,12.39,0,0,0,5.55.63c2.3-.35,2.85-.21,2.85.76,0,1.39.49,1.39,1.81.07.63-.62,2.36-1,4.17-1,2.57,0,3.06-.21,3.06-1.32s.55-1.46,1.94-1.6c2.85-.35,2-1.53-1.39-2a14.47,14.47,0,0,1-4.51-1.25c-2.16-1.18-2.64.14-.56,1.53,1,.63,1.6,1.46,1.39,1.81-.69,1.11-3.61.76-4.1-.35-.35-.9-.62-1-2-.21-2.08,1.18-13.27,1.11-16.74-.07-1.88-.62-2.57-1.25-2.44-2,.21-1,1-1.11,4.59-.91,3.89.21,4.45.07,4.8-1.18a3.8,3.8,0,0,1,2-2.15c2.29-1,2.57-1,2.09.28-.28.76.14,1,1.87,1a6.63,6.63,0,0,1,3.62,1.11c1.25.9,1.46.9,2.43-.42.76-1,2.15-1.52,4.86-1.8,5.49-.56,7-.91,7-1.74,0-.42-.28-.56-.62-.28-1.11.63-6.4-.48-6.12-1.32.14-.42,1.88-1,3.89-1.32,5.35-.76,6.61-1.6,3.2-2.29a11.77,11.77,0,0,0-6.32.76c-3.9,1.32-5.15,1-5.15-1.11s-1.39-1.53-1.8.77c-.28,1.11-.7,2.08-1,2.08a7.13,7.13,0,0,0-1.66.42c-.77.27-1.12,0-1.12-.84s-.2-1-.83-.41a3.5,3.5,0,0,1-2.15.83c-2.44,0,.07-2.08,3.05-2.5,1.53-.28,2.71-.77,2.71-1.11s-2.85-.49-7.29-.14l-7.23.48-.83-1.8a4.13,4.13,0,0,0-2.78-2.23c-3.2-.69-1.67-1.6,3.54-2.15,2.71-.28,5.07-.77,5.35-1.18s-.55-.49-2.29-.21-2.36.28-1.67-.21c1.81-1.18,6.25-1.67,7.3-.76s1.18.69,1.32-1.25c.14-1.33,12.51-8.27,15.7-8.83a6.75,6.75,0,0,1,3.89.28,41.86,41.86,0,0,0,4,1.73c2.43,1,2.57,1.19,2.57,4.17v3.13L778,576c2.57.77,4.94,1.39,5.21,1.39s-.9-1.67-2.64-3.61-3.19-4.1-3.19-4.73c.07-.83.2-.76.76.14s1.53,1.25,3.2,1.25c1.94,0,2.29.21,1.67.91s-.21,1.32,1.8,2.64c3.06,1.94,3.27,2.78,1.11,3.75-1.8.76-2.08,1.74-.55,1.74,1.11,0,5.9-4,5.9-4.94,0-.35-.48-.62-1-.62-1,0-4.58-2.92-4.58-3.69,0-.21.55-.21,1.25,0a2.55,2.55,0,0,0,2.15-.76c1.25-1.46,3.06-1.39,6.46.35a37.47,37.47,0,0,0,8.48,2.29,59.25,59.25,0,0,1,6.95,1.46c1.25.55,1.25.49.07-1.25l-1.18-1.88,2.64-1.11a9.68,9.68,0,0,1,5.14-.7,63.71,63.71,0,0,0,8.34.63c4.1.07,6.53.49,7.65,1.25a3.37,3.37,0,0,0,3.12.56,21.55,21.55,0,0,1,6-.14c7.57.62,11.05-1.18,11.05-5.77,0-1.81-.07-1.81-1.25-.76-1.32,1.25-4.31,1.59-4.31.62,0-.35.76-1,1.74-1.39a2.65,2.65,0,0,0,1.73-2.57c0-1.74-.07-1.74-1.73-.63-1.32.84-2.57,1.05-5.08.7a16.43,16.43,0,0,0-6.81.62c-4.1,1.26-4.44,1.26-4.44.21,0-1.8,2.22-3.26,4.23-2.85,1.6.28,2,.14,1.67-.62s.28-1.18,2.37-1.53a6.41,6.41,0,0,0,3.19-1.11c.7-1.11-1.25-.84-7.43,1.11-4.45,1.39-6,1.67-7,1-1.67-1-1.74-1-2.3.77l-.55,1.6-.28-1.6c-.35-2-1.25-1.74-8.2,1.6A24.29,24.29,0,0,1,809,563.2l-5.56.42,2.64-1.88c1.73-1.18,2.43-2.15,2-2.57-1.11-1.11-4.31.21-5.35,2.3-1.46,2.78-1.94,2.92-6.6,1.6-3.82-1.05-5.56-2.37-3.2-2.37a3.05,3.05,0,0,0,1.81-1c.76-1,.35-1-3.89-.63s-5,.28-6.46-1c-.91-.83-1.53-1.6-1.39-1.73a43.43,43.43,0,0,1,5.49-2.09c8.82-2.92,14.59-5.49,14.94-6.74.48-1.46,7.71-8.13,11.18-10.22,2.78-1.73,6.61-1.73,8.2-.14.56.63-.13.7-2.64.28-5-.69-3.47.77,1.81,1.74,2.43.42,5.21,1,6.32,1.18,1.39.28,1.88.14,1.88-.69,0-1,.63-1.12,4.38-.7,4,.42,4.59.28,6.46-1.32,2.3-2,2-3.2-.55-1.67-2.58,1.74-6,2-6.81.56-.56-1.11-.14-1.32,3-2,2-.41,6.19-1.11,9.39-1.52,6.94-.91,15-3.48,18.55-5.91a11.67,11.67,0,0,1,3.41-1.74c.41,0,.27.35-.28.7-.84.55-.63.69.76.69,2,0,4.1-1.88,4.1-3.61,0-1.11-2.71-1.95-6.18-1.95-1.81,0-1.81,0,.48-1.39,1.19-.76,2.23-1.87,2.23-2.43,0-1.46-2.5-3.82-4-3.82-2.64,0-2.09-1,1.46-2.57,1.94-.91,3.89-2.16,4.17-2.71a1.86,1.86,0,0,1,1.46-1c.55,0,1.18-.76,1.39-1.73.34-1.46.83-1.74,3.19-1.74,1.46,0,2.85-.28,3.13-.63.76-1.25-.84-1.39-4.94-.41a19.37,19.37,0,0,1-4.3.69,22.64,22.64,0,0,1,3.68-2.71c2.08-1.46,3.82-2.85,3.82-3.2,0-1.73-1.74-1.25-4.45,1.25-3.61,3.34-5.76,4.59-6.32,3.69a.84.84,0,0,1,.35-1.11,2,2,0,0,0,.69-1.46c0-.84-.28-.84-1.73.14a3.48,3.48,0,0,0-1.74,2.22c0,.83-.42.69-1.74-.56s-2.15-1.53-4.38-1.11c-2.85.42-4.93-.76-4-2.36.7-1.11,1.74-.84,1.32.35s.77,1.46,1.46.34c.21-.41,1.46-.69,2.71-.69a5.32,5.32,0,0,0,3-.77c.42-.41,2.22-.76,4.1-.83,3.27-.14,3.4-.07,3.2,1.6l-.21,1.74,1.46-1.46c1.39-1.32,1.39-1.53.28-4.17-1.46-3.41-2.3-4-4.31-2.64-2.37,1.53-3.62.2-3.62-3.69,0-2.22-.28-3.05-.83-2.78s-1.46.56-2.09.84c-.9.34-1.39,0-1.94-1.39-1-2.57-2.43-1.81-2.43,1.32,0,2.71-1.6,4.38-3.55,3.61-1.32-.49-1.25-2.5.14-2.5.9,0,1-.21.35-1s-.49-1.39,1-2.78c2.16-2.16,1.74-3.34-1-2.78-2.43.48-3.41-.77-1.46-1.81,1.25-.69,1.46-1.18,1-3.54-.35-2-.21-2.71.42-2.71s.69-.21.42-.42-1.39-.14-2.51.28c-3.26,1.18-2.57-.21,1.32-2.57,2.64-1.6,3.48-2.58,3.48-3.83a3,3,0,0,1,.69-2.15c1.25-.76.7-1.67-1.73-2.85s-4.45-.76-2.23.49c1.32.76,1.6,2,.35,2a6.53,6.53,0,0,0-2.78,1.88L849,467.16l.35-2.22c.21-1.25.49-3.2.7-4.45l.34-2.22L848,460.56c-1.87,1.81-2.57,2.16-3.33,1.53a25.79,25.79,0,0,0-2.3-1.81c-1.39-1-1.39-1,.21-1.45a2,2,0,0,0,1.53-2c0-1.11.56-1.81,1.95-2.29,3.19-1.12,6.32-4.1,5.9-5.77-.41-1.39-.41-1.39-1.87,0a11.82,11.82,0,0,1-3.34,2.08c-1.74.63-2,.56-2-.69s-.27-1.39-1.73-1c-1,.27-1.74.2-1.74-.07,0-.63,9.45-3.69,11.26-3.69s3.33-.76,3.33-1.53a8.23,8.23,0,0,1,1.46-2.71c2.09-2.91,1.32-3.75-1.46-1.66-2,1.46-2.5,1.6-2.64.69-.34-1.67-1.6-1.18-2.43,1l-.76,2.09-2.3-2.09c-1.87-1.66-3-2-5.76-2a18.8,18.8,0,0,1-4.38-.42c-1.11-.41-1.81.28-5.08,4.38-1.18,1.53-2.43,2.29-3.47,2.29s-1.53-.27-1.32-.69a2,2,0,0,1,1.67-.7,2.39,2.39,0,0,0,2.29-3.54,5.09,5.09,0,0,1-.83-2.36c0-.56-.28-1.05-.7-1.05-1.6,0-.55-1.32,1.39-1.73s3.27-1.46,2.5-2.23c-.28-.27-.83-.07-1.25.35-1.46,1.46-1.94.9-1.94-2a10.79,10.79,0,0,0-.77-4.17c-1.94-3.69,1.46-5.56,13.55-7.23,8.62-1.18,11.54-2,11.54-3.13,0-.9-1.6-.9-2.57.07s-2.3.21-2.3-1.53-1-1.67-2.64.56c-1.18,1.67-2,1.87-8.06,2.64-3.68.42-6.67.55-6.67.35,0-.84,3.61-2.16,4.87-1.74a1.24,1.24,0,0,0,1.66-.7,2,2,0,0,1,1.74-1,8.75,8.75,0,0,0,2.43-.42c1.53-.55,5.49-6.53,4.38-6.6l-1.67-.21c-.41,0-1.73-1.39-2.92-3.05-2.5-3.34-3.68-3.69-4.79-1.18-.9,1.94-2.36,2.36-2.09.55a1.21,1.21,0,0,0-1-1.46c-.83-.14-1.53.49-2.15,2-.91,2.15-1,2.15-1.74.76a9.17,9.17,0,0,1-.76-3.61c0-1.67-.42-2.3-1.88-2.85s-2.08-.42-4.1,1.53c-1.32,1.25-2.43,2.15-2.5,1.94a14.42,14.42,0,0,1-1-1.66c-1-1.81-3.62-2.09-6.82-.77a7.38,7.38,0,0,1-3.68.63c-1-.42-1-.35,0,1.18,1.32,1.87,1.6,4.17.49,4.17-.35,0-.7-.49-.7-1,0-.77-.76-1.05-2.71-1.05-1.53,0-3-.34-3.19-.69-.56-.91-2.44-.91-2.44.07a3.36,3.36,0,0,0,1.05,1.73c1.39,1.39,1.39,4.45,0,4.45-.56,0-1.05-.28-1.05-.69s-1.25-1.53-2.78-2.5a8.82,8.82,0,0,1-3.12-3.13c-.49-1.46-2.09-1.74-2.85-.56-.28.49.07,1.11.69,1.46a5.38,5.38,0,0,1,1.81,2.36,2.5,2.5,0,0,0,2.08,1.67c.77,0,1.39.35,1.39.7s1.12,1.25,2.44,1.87c1.53.77,2.43,1.67,2.43,2.51,0,1.32-2.5,6-3.27,6s-2.29-2.08-2.29-3.13c0-.62-.35-.9-.7-.69-1.18.76-2.78-1-2.78-3.06s-1.66-4.86-2.36-4.24c-.21.21.07,1.67.63,3.13.9,2.5,1.46,8.69.76,8.69a14.87,14.87,0,0,1-2.22-1.05c-2.5-1.32-4.45-1.32-4.45-.07a3.11,3.11,0,0,1-1,1.81c-.91.77-1.32.63-2.57-.62s-1.32-1.88-.63-3.27a9.35,9.35,0,0,0,.77-3,3.3,3.3,0,0,1,1-2.15,2.9,2.9,0,0,0,1-1.46c0-1-2.78-.7-3.89.41-1.32,1.26-3.75.21-4.24-1.87-.42-1.32-.42-1.32-1.95.14l-1.46,1.39-1.52-1.6c-1.39-1.46-1.46-1.88-.7-4,1-3.13,2.64-4.31,9-7,4.94-1.95,7.51-3.68,6.68-4.45-.42-.49-17.1,7.09-19.18,8.69a6.23,6.23,0,0,1-3.13,1.39c-1.46,0-1.39,0,.07-1.39.83-.84,1.53-1.67,1.53-2s1.87-1.6,4.24-2.85c4.51-2.57,7.64-5.28,3.61-3.26-2.78,1.46-4,1.46-5.07.14a3,3,0,0,0-1.53-1c-.42,0-.35.42.14,1,.9,1.11.41,2.43-1,2.43a5.71,5.71,0,0,0-2.71,1.74c-1.87,1.87-3.89,2.29-3.89.76a3.05,3.05,0,0,0-1-1.81c-1.39-1.18-1.32-1.87.28-2.29.9-.21,1.46-1,1.6-2.64.21-2.43.62-2.78,7.15-5.63,2-.83,3.69-1.67,4-1.81s.48.77.48,2c0,2.85,1.46,2.43,2.23-.56.48-1.73,1.45-2.71,4.37-4.37,3.55-2,6-4.17,3.76-3.27-3.62,1.53-3.62,1.53-3.13.07.55-1.67-1.53-4.59-2.16-3-1.39,3.61-10.42,9.73-16,10.84l-2.15.42.34-3a16.26,16.26,0,0,1,.7-3.41c.28-.27,1.32,1.12,1.81,2.37.27.76.76.55,5.69-2.3,2-1.11,4.52-2.5,5.77-3.12,2.23-1.05,2.85-2.85,1.81-5.56-.56-1.53-1.67-1.39-1.67.14s-2.5,3.89-6.53,6.6c-3.13,2.08-3.89,1.87-3.89-.9,0-1.53-.28-1.95-1-1.67s-1.33-.21-1.81-1.39c-1-2.09-2.43-2.3-4.24-.63-1.18,1-1.32,1-2.29-.21s-1-1.32-2.09.07c-1.39,1.74-1.11,4.1.49,4.38a5.7,5.7,0,0,0,3.26-1.18,7.73,7.73,0,0,1,2.78-1.46c1,0,1,2.57-.27,6.81a14.91,14.91,0,0,0-.91,4.73,2.16,2.16,0,0,1-1,1.94c-1,.63-1.6.28-4-2.57-1.53-1.81-3.27-3.27-3.82-3.27s-1-.34-1-.69.7-.7,1.6-.7L752,382l-1.53-1.26c-1.67-1.39-2.08-3.19-.9-3.89,1.46-.9.62-2.29-1.53-2.64a10.42,10.42,0,0,0-5.21.91c-3.48,1.52-3.69,1.18-1-1.6l1.87-2-1.6-1.25a10.72,10.72,0,0,0-2.29-1.53c-.49-.14-.49-.83.07-2.08a3.22,3.22,0,0,0,.07-3.27c-1-1.67-2.15-1.32-2.15.63,0,.69-.28,1.53-.7,1.73s-.69-.2-.69-1a2.2,2.2,0,0,0-.7-1.81,2.4,2.4,0,0,1-.69-1.8c0-1.39-1-1.81-1.74-.63-.84,1.39-2.43-.76-2.43-3.19s-.7-3-2.09-1.33c-1.25,1.46-3.27,1.33-3.68-.34-.35-1.39-1.88-1.95-1.88-.7,0,.35-.48.7-1.11.7-.83,0-1-.35-.56-1.25a20.77,20.77,0,0,0,.84-3.76c.41-3.75-1.32-4.24-4.45-1.18-1.53,1.46-2.36,1.95-2.36,1.25a3,3,0,0,1,.83-1.87c1.53-1.53-.07-1.74-2.5-.28-2.22,1.32-2.36,1.32-2.71.21s-.83-1.18-2.36-1c-1.81.28-2.3,0-3.69-2.36-.9-1.46-1.66-2.36-1.8-1.94s-.35,1.52-.56,2.5c-.62,2.85-2.15,2.92-4.93.14l-2.51-2.5-4.93.41c-4,.35-5.42.21-7.92-1-3.55-1.67-5.07-1.39-7.65,1.67L672.94,347l.35-2a7.37,7.37,0,0,0,.06-3c-.41-1.05-3-1.25-3-.21,0,.35-1,.69-2.37.69-2.29,0-3.68,1.39-2.78,2.85.56,1-.62.77-2.36-.48a3.4,3.4,0,0,1-1.53-2.09c0-1.18.84-1.25,1.95-.14.55.56.83.56.83.07,0-1.11-1.67-2.22-4-2.71-2.08-.42-2.29-.28-3.26,2.09-1.39,3.33-2.85,2.92-4.1-1.18-.63-2.09-2.3-1.33-2.78,1.25-.56,2.78-1.32,3.05-2.78.9a2.44,2.44,0,0,1-.35-2.85c.62-1,.48-1.6-.42-2.5-1.18-1.18-1.6-.77-6,4.65-1.12,1.33-2.3.63-2.72-1.59a3.86,3.86,0,0,0-1.39-2.44c-.55-.27-1.73-.83-2.57-1.25-2.57-1.32-3.19-1-2.78,1.25.35,1.46.21,1.95-.48,1.67-.49-.21-1.67.28-2.57,1-1.6,1.32-1.67,1.32-.35,2.78.76.84,1,1.46.49,1.46s-1.81-1.39-3-3.12c-2.37-3.41-3.34-3.9-3.34-1.81,0,2.57-1.46,2.29-2.64-.56-1.32-3.26-2.5-3.82-2-1,.91,4.73,1.26,8.55.7,8.55-.35,0-1.39-1.25-2.36-2.78-1.88-3.13-3-3.62-2.37-1,.42,1.66-.27,2.29-1.32,1.25a13.38,13.38,0,0,0-4.1-.63c-2.43-.14-3.26,0-2.64.49.84.48.7.9-.9,2.15-1.32,1.11-1.88,2.16-1.74,3.34.28,2.22-2,2.71-4.31.83-1.46-1.18-1.8-1.18-3.54-.35s-2.22.84-3.54-.07c-3.13-2.22-3.69-.55-.84,2.51,1.74,1.73,1.88,2.43,2.09,8.47.14,3.83,0,6.82-.42,7s-.7-.2-.7-.9a2,2,0,0,0-1-1.74c-.55-.21-1.39-1.66-1.81-3.19-.69-2.71-3.47-5.63-5.21-5.63-.48,0-1.25.9-1.6,2-.69,2-.76,2-4.86,1.67-2.5-.21-4.31-.07-4.59.35s.84,2.29,2.37,4.24a23.73,23.73,0,0,1,2.78,4c0,.21-.84.28-1.88.07l-2-.35,2.09,1.67a19.34,19.34,0,0,0,4,2.43c2.36,1,2.5,2,.28,2-1.67,0-5.28,2.84-5.28,4.17a7.49,7.49,0,0,0,.69,2.15c.9,1.67.63,1.67-2.57-.07s-4.45-1.74-7.3,0a9.68,9.68,0,0,1-3.47,1.39,7.15,7.15,0,0,0-3.13,1.67c-1.6,1.32-2.08,1.46-2.78.76s-1.53-.76-3.54-.21a10.92,10.92,0,0,1-5.21,0c-2.16-.62-2.78-.48-4.31.7-1,.76-1.74,1.11-1.74.9s-.83.07-1.88.7c-1.25.83-1.94,1-2.15.48-.42-1.32-2-1-4.17.91l-2.09,1.73-2.08-1.73c-2.5-2.09-2.92-2.16-2.92-.35,0,1.18-.49,1.39-2.64,1.39-3.06,0-5.21,1.81-6.46,5.49-.7,2-.63,2.43,1,4.17a6.64,6.64,0,0,1,1.81,3.06c0,.62.9,1.59,2,2.22,3.13,1.6,3.2,2.36.07,1.95s-6.25,1.11-6.25,3.26c0,.77-.28,1.39-.7,1.39s-.69-1-.69-2.08c0-1.6-.28-2.09-1.39-2.09-.77,0-1.39.28-1.39.7,0,1.32-2.57.69-4.17-1.05-2.57-2.77-6.88-2-5.91,1.05a2,2,0,0,1-.9,2.5,6.09,6.09,0,0,0-1.88,3.13c-.28,1.18-.83,2.22-1.25,2.36-3.75,1-3.75,1-1.53,2.85a19.43,19.43,0,0,0,4.73,2.5c1.39.42,2.57,1,2.57,1.25a32.63,32.63,0,0,1-1.11,3.68c-.84,2.58-1.46,3.27-2.64,3.27-2.16,0-8.69,2.36-9.94,3.68-.84.84-1.46.91-2.71.35-2.16-1-2.78-.35-1.81,1.81.49,1.18.49,1.87-.07,2.43s-.55.76.07.76a.73.73,0,0,1,.83.7c0,1.32-2.22.69-2.57-.7-.48-1.8-1-1.73-3,.35s-3,1.67-2.37-.62c.35-1.39-1.39-4-2.08-3.13-1.74,2.29-3.2,5.84-3.2,7.85,0,2.92-.83,3.27-2,.7-.56-1.18-1.19-1.67-1.88-1.39a8.36,8.36,0,0,1-2.16.41c-1.66,0,1,2.71,3.83,4,1.25.48,2.08,1.25,1.87,1.52-.41.77-4.86-.2-6.25-1.32-.77-.62-1.11-.48-1.67.63-.9,1.6.28,2.78,1.46,1.6.56-.56,1.32-.42,2.57.48a12,12,0,0,0,3.41,1.74c1.87.63,4.31,3.06,4.31,4.38s-2,1-2.78-.49a2.64,2.64,0,0,0-1.81-1.39c-1.88,0-.63,1.67,2.57,3.48l3.06,1.73-4.17.42c-4.8.49-6.4-.48-8.76-5.14-2.64-5.14-3.82-2.09-1.18,3.34l1.53,3.12-1.53,1.6c-1.6,1.74-2,3.61-.83,4.31a1.81,1.81,0,0,1,.69,1.53c0,.76-.48,1-1.74.76-2.5-.48-2.15.49.56,1.53a10.16,10.16,0,0,1,3.06,1.95c1.25,1.53,2.5.28,2-2.16l-.41-2.15,1.73,1.67a5.28,5.28,0,0,1,1.74,2.5c0,.42.63,1,1.39,1.18a1.82,1.82,0,0,1,1.39,1.53c0,.9.35,1,1.25.69,2.57-1.18,5-1.18,5.42-.14.28.84.77.91,2.3.28,2.15-.83,7.71.07,7.92,1.25.07.35-1.81,1.18-4.17,1.74-3.55.83-4.38,1.32-4.38,2.43a3.17,3.17,0,0,1-1.39,2.3c-.83.48-1.25,1.18-1,1.59.48.84,3.75-1.94,3.75-3.26s1.6-1.67,7.3-2.16c5.9-.48,7.85.77,2.22,1.46a31.93,31.93,0,0,0-6.32,1.39c-2.44.84-2.57,1-1.25,1.39,1.87.63,2,1.81.13,1.81-1.59,0-2.78,2-2.78,4.52,0,1.66-.2,1.8-2,1.39-2.64-.56-3.54.83-1.53,2.5a10.62,10.62,0,0,0,2.36,1.53c.63.21.56.62-.27,1.46-1,1-1.46,1.11-4,.27C474,496.7,473,496,473,495.24c0-1.53-1.12-1.6-1.67-.14-.35.9-.63,1-1.39.35a2.37,2.37,0,0,0-1.53-.7,3.74,3.74,0,0,1-1.88-.41,2.35,2.35,0,0,0-2.22.34c-.77.63-1.25.49-2.5-1-2-2.29-3.13-1.67-4.45,2.43-1.25,3.69-2.43,4.52-2.43,1.67,0-1.11-.42-1.74-1-1.74s-1,.28-1,.7-.76.69-1.67.69c-1.39,0-1.52.28-1.25,1.81s.21,1.74-1.11,1a10.89,10.89,0,0,1-2.78-2.64c-.76-1.11-1.6-1.74-1.8-1.53-.77.7,1,4.8,2.43,5.56,1.87,1,1.67,2.23-.28,1.81-1.18-.35-1.81,0-2.78,1.67s-1.53,2.08-2.92,1.73c-2.22-.55-2.78.63-1,2.37a4.67,4.67,0,0,1,1.39,2.43c0,.63.76,1.46,1.74,1.88,2.36,1,2.15,2.22-.49,3-3.75,1.12-2.85,2.58,2.22,3.69l4.52,1-5.35,1.81C438.19,524.91,435.41,526.65,437.77,526.65Zm81.52,44c-1,.42-1.81-.07-1.81-1,0-.77,1.88-.7,2.36.07C520.05,570,519.84,570.43,519.29,570.64Zm5.21,6.74c-.83,0-1.46-.35-1.46-.69s.42-.7,1-.7a1.74,1.74,0,0,1,1.46.7C525.68,577,525.26,577.38,524.5,577.38Zm4.73-1.11c-1.46,1.88-1.6,1.88-2.51.69-1-1.46-1.25-3.33-.2-2.71.41.21.69,0,.69-.62,0-1.88,3-2.16,3.34-.35A5.39,5.39,0,0,1,529.23,576.27Zm295.83-13.41c.62-.7,3.89-1.32,4.45-.91.14.14-.14.49-.7.84C827.42,563.69,824.16,563.69,825.06,562.86Zm1.53,2.71c1.8,0,2.85.28,2.57.69-.56.91-3.13.91-4.52,0C823.88,565.78,824.43,565.57,826.59,565.57Zm-4.24-3.41a1.3,1.3,0,0,1,1.18.56c.21.35-.56,1-1.74,1.39-1.73.62-2,1-1.67,2.29s.35,1.53-.55.35a3.86,3.86,0,0,0-2.57-1.18C813.66,565.57,818.53,562.44,822.35,562.16Zm-18.7,3.75c1.39-.27,2.92-.55,3.27-.69,2.09-.7,2.57-.28,1.32,1.11-1.81,2-3.82,2.64-5.63,1.81C800.32,567.1,800.67,566.4,803.65,565.91Zm-7.5-.69a1.3,1.3,0,0,1,.69,1.11.64.64,0,0,1-.69.63c-.35,0-.7-.49-.7-1.11S795.8,565,796.15,565.22Zm65.39-74c1,0,1.11.35.7,1.88-.56,2.08-2.5,2.91-3.76,1.66C857.58,493.85,859.74,491.21,861.54,491.21Zm-8.75-49.34c.55,0,1,.28,1,.69s-.49.7-1,.7-1-.35-1-.7S852.23,441.87,852.79,441.87Zm-10-29.19a.61.61,0,0,1,.62.56c0,.9-.83,1.53-1.52,1.11S841.81,412.68,842.78,412.68ZM694,508.24c-.34.2-.69.06-.69-.28a.77.77,0,0,1,.69-.77c.42,0,.7.14.7.28S694.41,508,694,508.24Zm3.13,6.6c-.55,0-1-.63-1-1.39s.49-1.39,1-1.39,1,.62,1,1.39S697.68,514.84,697.12,514.84Zm3.34,31.62c-.91-1.32-1.25-3.13-.56-3.13a12,12,0,0,1,2.43,1,5.94,5.94,0,0,0,3.83.63c2.84-.7,1.94.14-1.53,1.46C701.57,547.64,701.36,547.64,700.46,546.46Zm3.33-4.59c1.32-.83,3.41-.76,3.41,0s-2.57,1.67-3.55,1C703.1,542.63,703.17,542.29,703.79,541.87Zm6.88,24.67c0,1.11-2.57,3.2-4,3.2s-1.11-1.74.21-3.06S710.67,565.22,710.67,566.54Zm-1.73-16.26c.2-.42.55-.7.69-.7s.49.28.7.7-.07.69-.7.69S708.73,550.63,708.94,550.28Zm2.57,13.83c-1.39.07-2.16-.21-1.88-.63.49-.83.9-.83,2.78,0C713.59,564,713.38,564.11,711.51,564.11Zm-.42,13.13c-1.25,1.11-1.25,1.11-.42-.41.42-.91,1-1.46,1.25-1.26S711.78,576.55,711.09,577.24ZM704,554.31c-1.11,1.6-1.32,1.67-1.53.62a5.16,5.16,0,0,1,1-3.12c1.11-1.6,1.32-1.67,1.52-.63A5.15,5.15,0,0,1,704,554.31Zm-2.92,16c-.14-.62.49-2.5,1.32-4.17,1.11-2,1.67-2.64,1.88-1.8.14.62-.49,2.5-1.32,4.17C701.85,570.5,701.29,571.13,701.08,570.29Zm.14,6.19c-.21-.21.63-1.53,1.88-2.92,2.15-2.36,3.4-2.36,2.43,0C705.11,574.74,701.78,577,701.22,576.48Zm3,19.53c1.18-1.33,2.29-1.67,2.29-.7a5.81,5.81,0,0,1-1.73,2.22C702.82,599.41,702.26,598.09,704.21,596Zm6.95,8.26c-5.77-.34-8.13-.9-8.13-1.87,0-.28.55-.7,1.25-1a24.76,24.76,0,0,0,4.24-2.85c2.43-2,3.54-2.44,5.56-2.3,1.8.14,2.57.56,2.71,1.53a2.7,2.7,0,0,1-1.25,2.5c-1.32,1-1.39,1.25-.49,1.6a1.81,1.81,0,0,0,1.88-.62c1.18-1.39,2.08-1.25,2.08.34C719,604.14,717.27,604.69,711.16,604.27Zm5.56-9.93c-5.21.55-7.23.07-5.91-1.46.63-.84,1.74-1,4.38-.63,1.88.21,4.17.42,5.07.42C723.53,592.67,721,593.92,716.72,594.34Zm6.81-99.66c.21,0,.35.56.35,1.25,0,1.19-4.59,4.1-5.35,3.41C718.25,499.06,723,494.68,723.53,494.68Zm-2.16-41.62c.77-.07,1.19.14.91.34a1.4,1.4,0,0,1-1.32.07C720.4,453.27,720.61,453.06,721.37,453.06Zm33.85,52.26c-.77-.35-.77-.49,0-1,1.6-1,2.71-.69,2.71.7,0,2.08-1.81,3.06-4.66,2.64-4.17-.7-4.45-1.88-.48-1.95C754.66,505.73,755.77,505.52,755.22,505.32Zm5,30.92c1.88-.35,2.16-.21,1.53.77s-3.13,1-3.13.13C758.62,536.8,759.32,536.38,760.22,536.24Zm-.9-22.51c0-1.39,1.53-5.15,2.15-5.15a.57.57,0,0,1,.63.49C762,510,759.39,514.49,759.32,513.73Zm-1.46,15c-1.25,0-1.32-.14-.63-1s2.09-.83,2.09.42C759.32,528.46,758.62,528.74,757.86,528.74ZM749,551c1.25,1,1.39,1.32.56,1.39a4,4,0,0,1-2.36-1.39C745.56,549.17,746.88,549.17,749,551Zm-3.75-7.15c.83-.91,3-.49,3,.55,0,.63-.63,1-1.74,1C744.79,545.41,744.24,544.72,745.21,543.82Zm4.73,5.07a1.29,1.29,0,0,1,1-.7,1.3,1.3,0,0,1,1,.7c.21.35-.21.69-1,.69S749.73,549.24,749.94,548.89Zm.34-9.73c0-.35.56-.76,1.25-.9,2-.56,2.3-.49,2,.14C752.92,539.23,750.28,539.85,750.28,539.16Zm.56-26.06c-3.89,0-4.86-.42-3.27-1.46a1.58,1.58,0,0,0,.42-1.74c-.28-1-.07-1.25,1.11-1,.84.14,3,.49,4.87.7s3.26.69,3.26,1C757.23,512.13,754.66,513.1,750.84,513.1Zm-2-11.19c-1.45,2.5-3.4,3.41-3.4,1.53,0-1,4.24-4.79,4.72-4.31A9.6,9.6,0,0,1,748.82,501.91Zm-.13-14a13.64,13.64,0,0,0-2.71,3.27c-.35.83-.56.83-1.53-.35s-1.18-1.32-2.09-.14c-.55.7-1.18,1-1.39.56-.62-.9,1.53-2.85,3.13-2.85a2.08,2.08,0,0,0,1.81-1.25,7.23,7.23,0,0,1,1.11-2.09c.83-1,4-1.11,4-.07C751,485.44,749.94,486.76,748.69,487.94Zm-27,67.27c1.88-1.73,4.59-2.15,2.85-.48a6.62,6.62,0,0,1-2.78,1.39l-1.74.48Zm-2.29-43.92c.49-.83,2.36-.83,2.36,0,0,1.18-.83,2.85-1.39,2.85C719.64,514.14,718.94,512.06,719.43,511.29Zm6.46,49.41c1.53-1.32,2.85-1.8,2.85-1a7.49,7.49,0,0,1-2.22,1.39l-2.3,1.11Zm-4.52-9.93c-.2-.21.49-.84,1.6-1.46,2.23-1.26,7.23-1.19,7.65.07C730.9,550.21,722.14,551.53,721.37,550.77Zm8-44.55a3.18,3.18,0,0,1-2.3,1c-1.46-.07-1.46-.07.21-1.39C729,504.27,730.69,504.62,729.37,506.22Zm-.07,32.66c-.7.63-2.64-.21-2.64-1.11s.69-.9,2.08,0C729.3,538.12,729.51,538.6,729.3,538.88Zm1.18,5.21a.89.89,0,0,1,1.18-.34c.42.27.42.69-.07,1.18C730.69,545.83,729.78,545.14,730.48,544.09Zm-1.32-40.93c-.28-.21.41-1.25,1.46-2.36,1.94-2.09,4.65-2.71,4-.9C734.09,501.08,729.71,503.79,729.16,503.16Zm4.38,53.16c.9-1.11,1.46-1.45,1.46-.9a4.24,4.24,0,0,1-1.19,1.18C732.7,557.51,732.63,557.44,733.54,556.32Zm1.18-59.9a4.56,4.56,0,0,1-2.43,1c-.63,0-.14-.48,1-1C736,495.17,736.39,495.17,734.72,496.42Zm1.18,16.82c1.39-.63,4-.56,4,.07,0,1.18-2.71,3.06-3.82,2.71A1.5,1.5,0,0,1,735.9,513.24Zm.42-33.57c-.91-.55-.07-1.66,1.25-1.66.9,0,.9.2.21,1C737.29,479.6,736.66,479.88,736.32,479.67Zm1.46,10.22c0,.69-.28,1.32-.7,1.32s-.69-.83-.69-1.81.27-1.6.69-1.32A2.19,2.19,0,0,1,737.78,489.89Zm1.94,13.76c-1.94,0-2.08-.14-.9-.63,1.94-.83,3.12-.83,3.12,0C741.94,503.37,740.9,503.72,739.72,503.65Zm.49,2.85a1.32,1.32,0,0,1,1.11-.7.64.64,0,0,1,.62.7c0,.35-.48.69-1.11.69S740,506.85,740.21,506.5Zm1.73,4.17c.42,0,.7.48.7,1.11s-.28.83-.7.62a1.48,1.48,0,0,1-.69-1.11A.69.69,0,0,1,741.94,510.67Zm0-15.29q-2.91,2.3-3.33-.21c-.21-1,.28-1.18,2.43-1.18h2.64Zm-.13-11.54c-.42-.27.2-1,1.59-1.73,2.71-1.46,4.1-1.67,4.1-.56S742.78,484.4,741.81,483.84ZM739.86,450c-3.61,2.92-4.66,2.71-1.88-.35,1.39-1.6,2.57-3.4,2.57-4a2.36,2.36,0,0,1,1.26-1.67c1.25-.76,2.22-1,2.22-.41C744,444.79,741.46,448.75,739.86,450Zm1.81-11.26c-1.39,1.32-2.92,2.43-3.55,2.43s-1,.28-1,.7a.83.83,0,0,1-.83.69c-1.19,0,5.76-6.18,7-6.25C743.68,436.31,743,437.42,741.67,438.74Zm-4.59-1c-1.53.83-1.88.07-.56-1.25,1-1,2-1.11,2-.14C738.47,436.66,737.84,437.28,737.08,437.7ZM737,472.86c.21.21-.07.63-.62,1-1.67,1-2.58.76-1.12-.35C736,472.93,736.8,472.65,737,472.86Zm-2.36,20.43a4.36,4.36,0,0,1-1.95,1.39c-.41,0,0-.76.91-1.73C735.48,490.93,736.52,491.21,734.65,493.29Zm-2.16-3.47a2.83,2.83,0,0,0-2,1.18c-1.32,1.81-2.5.56-1.6-1.88.76-2.22,1.32-2.5,3.41-1.39C733.88,488.64,734,489.82,732.49,489.82Zm-4.44-16.68a.75.75,0,0,1-.7-.69.7.7,0,0,1,.7-.7.66.66,0,0,1,.69.7A.7.7,0,0,1,728.05,473.14Zm0,21.34c1,.83,1.11,1.32.55,1.66-1.18.7-1.94.07-1.94-1.46C726.66,493.36,726.73,493.36,728.05,494.48Zm-.91,6.32a3.94,3.94,0,0,0-1.18,2c0,.91-1.6,1.6-3.54,1.6s-1.53-.83,1.66-2.92C727.49,499.27,728.74,499,727.14,500.8Zm-6.67,68.94c.35,0,.63.48.63,1,0,1-2.57,2.85-3.2,2.29C717.48,572.66,719.71,569.74,720.47,569.74Zm-2.5,9.1a2.42,2.42,0,0,1,1.95-.76h1.45l-1.52,1.11C718.18,580.37,717.14,580.16,718,578.84Zm3.13,9.73c.62-.07.69.14.34.56-.83.76-5.9,1.8-5.9,1.18C715.54,589.89,719.36,588.64,721.1,588.57Zm4.37-13.83c-.9.83-1.8,1.32-2,1s.07-1,.83-1.53C726.31,572.72,727.14,573,725.47,574.74Zm2.58,11.68a.75.75,0,0,1-.7-.7.69.69,0,0,1,.7-.69.65.65,0,0,1,.69.69A.7.7,0,0,1,728.05,586.42Zm.83,2.71c-.21-.42.07-.7.56-.56s.76.56.76.83C730.13,590.24,729.16,590,728.88,589.13Zm4.38-7c.21.34-.28.9-1.11,1.11-1.6.55-2.37.07-1.67-1A1.8,1.8,0,0,1,733.26,582.18ZM722.49,570.5c0-.42.55-1,1.25-1.39,1-.62,1-.69-.35-.76-.9,0-1.6-.28-1.6-.63,0-1,2.71-1.6,5.28-1.11,1.81.28,2.37.21,2.37-.63a4.37,4.37,0,0,1,1.94-2.43c2.5-1.87.56-1.94-2.57,0-7.09,4.31,2-3.26,12.23-10.21,3-2,3.13-2,5.14-.35l1.53,1.25-1.39,2a25.4,25.4,0,0,1-3.12,3.47C741,561.74,722.49,571.34,722.49,570.5Zm20.71-.76c-1.26,0-.84-.63,2.29-4a37.5,37.5,0,0,1,5.14-4.8c1.46-.9,5.77-.62,6.88.49C758.83,562.65,746.74,569.74,743.2,569.74Zm19.25-18.49c-1.74,1.6-7.3,4.17-7.3,3.34.07-1.11,4.31-6,6.74-7.79,2.36-1.66,5.77-3.26,7.37-3.4a5.12,5.12,0,0,1,1.94.62c2.85,1.6.56,4-4.79,5.22A10.12,10.12,0,0,0,762.45,551.25Zm12.3-70.6c-1.39.2-1.46.07-.77-1.67,1.25-3.48,2.92-4.73,3.61-2.78C778.15,477.66,776.41,480.44,774.75,480.65Zm3.12.62c.63-.69,1.6-.62,1.6.14,0,.35-.49.77-1,1C777.39,482.8,777,482.11,777.87,481.27Zm-2.71,7.58c2.23-1.18,2.78-.91,1.53.62-1.53,1.88-3.47,2.64-3.47,1.46C773.22,490.31,774.05,489.4,775.16,488.85Zm2.71,8.68c3.48-2.36,6.47-2.78,7.86-1.11.69.84.62,1-.35,1a1.84,1.84,0,0,0-1.53,1.39c-.21.77-.56,1.39-.83,1.39a4.17,4.17,0,0,0-1.39.63c-.77.49-.7.9.27,2.43s1.12,1.81,0,1.81c-.76,0-1,.41-.76,1.25a2.42,2.42,0,0,1-1,2.57c-1.46,1.32-9.66,3.82-12.65,3.82-4.73,0,.14-5.21,5.56-5.9,4.45-.63,6.6-1.33,6.95-2.3s-1.88-1-5.63-.21c-1.39.35-2.71.35-2.92.07C770.92,503.51,774.33,499.9,777.87,497.53Zm25.92-14.31c-.55-.35-.48-.77.07-1.46,1-1.25,2-1.25,2,0A1.46,1.46,0,0,1,803.79,483.22Zm2.64,6.53c.21.56-.07.83-.62.63a2,2,0,0,1-1.18-1.19c-.21-.55.07-.83.62-.62A1.94,1.94,0,0,1,806.43,489.75Zm-1.94,2.85c2.36,0,2.85.21,2.08.76-2.08,1.39-7.64,4.1-7.64,3.69a13.78,13.78,0,0,1,1.18-2.44C801.15,492.88,801.71,492.6,804.49,492.6Zm5.63-16.75c1.67-.21,3.12-.49,3.26-.49s.14.14.14.42c0,.91-3.26,2.23-5.28,2.23C805.25,478,806.78,476.34,810.12,475.85Zm.69-45.1c.35,0,.63.42.63,1,0,1.18-1,2-1.6,1.39S810.05,430.75,810.81,430.75Zm8.69,5.56c.56,0,1,.35,1,.69,0,.84-4.31,2.85-4.86,2.3S818.39,436.31,819.5,436.31Zm-.35-20.15c.35,0,.63.62.63,1.32,0,1.53-1.11,2.5-1.67,1.53S818.32,416.16,819.15,416.16Zm10.91,59.9a2.48,2.48,0,0,1-1.8,1.11,5.56,5.56,0,0,0-2.92,2.09c-2.51,3.4-2.85,3.61-5.08,3.61L818,482.8l1.74-1.39a49.35,49.35,0,0,0,5.14-4.79C826.45,475.09,830.48,474.67,830.06,476.06Zm-1.94-20.85c1,0,1.32.14.9.35a3.65,3.65,0,0,1-1.74,0C826.8,455.35,827.14,455.21,828.12,455.21Zm7.5,57.54c1,0,1,.07-.07,1.18-.62.63-1.32,1-1.6.77C833.26,514,834.37,512.75,835.62,512.75Zm-.9-4.86c.35-.56.76-.49,1.46.07s.83,1,.69,1.18C836.25,509.76,834.3,508.58,834.72,507.89Zm8.62,13.69c.13.07-.14.69-.63,1.25-1,1.25-6.74,1.25-6.46,0C836.39,522.2,842.57,521.16,843.34,521.58Zm-5-6.12c-3.4,1.32-1.94-.41,2.5-3s6-3,6-1.94C846.88,511.15,841.53,514.28,838.33,515.46ZM840.14,491c-.49.21-.9-.14-.9-.76a1.11,1.11,0,0,0-1.12-1.12c-.83,0-1,.49-.62,2a3.22,3.22,0,0,1-1,3.47c-1.53,1.53-3.27,1.88-3.69.84-.07-.35-1.11-.91-2.15-1.18-1.88-.42-2-.42-1.11,1,1.39,2.22.13,3-5.77,3.61-2.85.35-6,.84-7.09,1.12-2.71.62-1.88-.63,1.11-1.88a7.17,7.17,0,0,0,2.85-1.81c.63-1,7.78-6.53,9.52-7.29a23.16,23.16,0,0,1,5.91-.35c3.68.14,4.86.35,4.86,1.11A1.39,1.39,0,0,1,840.14,491Zm-27.59,17.37c1.11.84,1.11.91-.63.91-2.5,0-2.43-1.53.28-3.76,1.67-1.45,2.85-1.8,5.7-1.8a29.73,29.73,0,0,1,5.21.42c2.92.83,1.53,1.45-4,1.94a36.55,36.55,0,0,0-6.67.9C811.37,507.4,811.37,507.47,812.55,508.37ZM805.88,502c1.81-1,4.52-1.46,3.06-.49a4.66,4.66,0,0,0-1.25,1.95,7.36,7.36,0,0,1-1.74,2.64c-1.25,1.18-1.39,1.18-2.78-.21-1.81-1.8-1.88-2.85-.21-2.85A9.16,9.16,0,0,0,805.88,502Zm-2.09-3.06a.76.76,0,0,1,.7-.76c.42,0,.69.14.69.28s-.27.55-.69.76S803.79,499.27,803.79,498.92ZM811,479.46c1-.06,1.11.14.42,1-1,1.18-3.2,1.39-3.82.41C807.27,480.16,808.66,479.6,811,479.46Zm-3.68,31.9c1.11,0,2,.14,2,.35,0,.63-3.54,1.74-4.24,1.32C803.93,512.34,805.18,511.36,807.34,511.36Zm1.74-13.62a1.75,1.75,0,0,1-.42-2.43c.83-1.46,2.22-1.88,7.3-2.22,1.94-.14,3.82-.28,4.16-.35s-.2.69-1.39,1.6c-1.87,1.53-5.49,2.92-6.74,2.57-.34-.07-.55.35-.55.9C811.44,499.13,810.47,499.13,809.08,497.74Zm8.33-19c2.58-2,3.83-1.81,1.46.28s-3.82,2.22-4.44.62c-.49-1.25.83-4.44,1.87-4.44.35,0,.7.13.7.34a9,9,0,0,1-1.11,2.16C814.36,480,815.12,480.58,817.41,478.77Zm9.66,22.17a4.12,4.12,0,0,1-2.64.69c-1.66,0-1.94-.21-1.18-.69C824.64,500,827.63,500,827.07,500.94Zm.77,14c.55,1,.62,1.73.14,1.94-1.11.35-2-1-1.53-2.36C826.87,513.38,827,513.45,827.84,514.91Zm-6.46-2.51c1-.9,2.36-1.52,2.91-1.32.7.28,1.05,0,1.05-.76s.34-.9.69-.69c.56.34.49.83-.07,1.52-1,1.19-4.38,3-5.63,3C819.85,514.14,820.26,513.31,821.38,512.4ZM826,523.94a5.66,5.66,0,0,1,3.06-1.46c1.46,0,1.46,0,.14,1a13.9,13.9,0,0,1-3.13,1.39l-1.74.49Zm3.55-9.8a.75.75,0,0,1-.7-.69.7.7,0,0,1,.7-.7.66.66,0,0,1,.69.7A.7.7,0,0,1,829.51,514.14Zm-1.32-6.32a2.58,2.58,0,0,1,3-.21c2,.76,1.25,2.36-.9,2.36C827.91,510,826.73,508.72,828.19,507.82Zm5,8.2c.35.21-.07,1-1,1.67-1.12.83-1.74,1-2,.48C829.92,517.2,832.29,515.46,833.19,516Zm-11-28.35c.56-.84,2.43-.84,2.43,0a1.42,1.42,0,0,1-2.08,1.11A.84.84,0,0,1,822.21,487.67ZM820,455c-4.66.07-5.36-.27-2.78-1.32,1.94-.76,1.73-.76,4.65.35l2.43.9Zm-.91-13.55c0-1,.84-1.8,1.32-1.32.14.21-.07.77-.48,1.18S819.08,441.87,819.08,441.45ZM816.58,429a4.92,4.92,0,0,1-3.89,2.44c-.49,0,.07-.77,1.18-1.74C816.3,427.76,817.14,427.55,816.58,429Zm-16.26,84.51c1.46-.07,1.53.07.69.9a16.15,16.15,0,0,1-6.74,2.5C791.35,516.92,797.19,513.59,800.32,513.52Zm-2.36-6a3.11,3.11,0,0,1-.35,2.29c-.42.7-.77.84-.77.35s-.76-.83-1.73-.83c-2,0-2.3-1-.49-2S797.54,506.36,798,507.47ZM797.61,494a.62.62,0,0,1,.62.62c0,.84-1.39,1.74-1.87,1.26S796.77,494,797.61,494Zm-3.55,28.21a4.78,4.78,0,0,1,.91-3.05,51.86,51.86,0,0,1,7.43-2.51,105,105,0,0,0,10.78-3.47c4.16-1.67,6.11-1.74,5.49-.14-.21.49-1.67,1.32-3.27,1.81-3.41,1-9.94,5.76-10.42,7.57-.49,2-10.57,8.48-15.22,9.87-1.74.49-2.44.21-4.87-2l-2.78-2.5,1.95-1.67c2-1.73,3.26-1,1.67,1-.49.55-.7,1.18-.56,1.39.76.76,4.1-.63,5.35-2.23a4.18,4.18,0,0,1,2.43-1.66C793.79,524.57,794.06,523.94,794.06,522.2Zm16-1.32a1.71,1.71,0,0,1,1.87-1.87c.77,0,.77.34.21,1.39C811.3,522,810.05,522.27,810.05,520.88Zm.69,4a1.07,1.07,0,0,1-1,1.05c-1.11,0-1.39-.84-.56-1.6S810.74,523.8,810.74,524.91ZM802.61,535c.63,0,1.18.28,1.18.69,0,.84-3.33,1.74-4,1.12C799.21,536.17,801,535,802.61,535Zm-3.68-4.17c1.39-.9,3.68-.9,3.13,0a3.29,3.29,0,0,1-2.3.7C798.3,531.52,798.1,531.38,798.93,530.82Zm-.7,3.48c0,.83-6.18,4.44-6.67,4-.76-.77.63-2,3.48-3.34C798.44,533.39,798.23,533.46,798.23,534.3Zm-10.42,4.16c-.83,0-1.25-.34-1-.69a1.12,1.12,0,0,1,2.08,0C789.06,538.12,788.64,538.46,787.81,538.46ZM776.2,537c-6.11.06-7.85-.91-2.64-1.46,3.55-.42,6.61-2.16,6.61-3.76,0-.83-.7-1-3.27-.83-2.08.14-3.34-.07-3.47-.7s.27-.83,1.18-.83,1.25-.28,1-.76c-.49-.7,2.15-4.1,3.2-4.1.27,0,.76.83,1.18,1.87a19.87,19.87,0,0,0,3.19,5c1.39,1.66,2.44,3.4,2.3,3.82C785.17,536.38,782.39,536.94,776.2,537Zm6,10.77a2.94,2.94,0,0,1-2.92,2.5c-1,0-1.25-.56-1.25-2.29a6.75,6.75,0,0,1,.42-2.78C779.12,544.65,782.25,546.8,782.25,547.78Zm-7-3.41c0,.56-.28,1-.62,1s-.77-.48-1-1,0-1,.63-1A1.07,1.07,0,0,1,775.3,544.37Zm-4-3.06c-1,1-5.84,2.09-6.74,1.46s2.92-2.15,5.49-2.22C771.55,540.55,771.9,540.76,771.34,541.31Zm3.06-26.75c.83-.77,2.64-.14,2.64,1,0,.56-.7,1.11-1.53,1.25C774,517,773.29,515.67,774.4,514.56Zm6.88,2.43a5.19,5.19,0,0,1,3.33-1.39c1.95-.07,1.88,0-1,1.6C780.1,519,779.26,518.94,781.28,517Zm7.64,7a2.16,2.16,0,0,1,1.53,1.11c.21.63-.14.91-1,.7a2.16,2.16,0,0,1-1.53-1.11C787.74,524.08,788.09,523.8,788.92,524Zm-1.25-1.74c-1.67.42-3.75,1-4.72,1.25-1.46.49-1.6.42-.84-.41,1.67-1.81,8.48-3.55,8.48-2.16C790.59,521.23,789.27,521.79,787.67,522.27Zm-.07-8.41a1.4,1.4,0,0,1-1.32.07c-.55-.2-.35-.41.42-.41S787.88,513.66,787.6,513.86ZM768,480.79c-1.45,0-1.32-.7.49-2.58,1.53-1.66,3.34-2.15,3.34-.9C771.83,478.35,769.19,480.79,768,480.79Zm-.83,5.55c.35,0,.14.63-.56,1.39s-1.39,1.26-1.59,1C764.53,488.36,766.27,486.34,767.17,486.34Zm3.13,32.32c4,1.18,4.17,2,.69,2.71-1.73.35-2.57.07-4-1.25a12.24,12.24,0,0,0-2.85-2C761.68,517.2,767,517.69,770.3,518.66Zm-3.69,35.09a4,4,0,0,1-2.36,1.39c-.83-.07-.69-.34.56-1.39C766.89,552,768.21,552,766.61,553.75Zm3.13,11.82a4.9,4.9,0,0,1-2.08-.7c-.91-.62-.91-.69,0-.69a4.87,4.87,0,0,1,2.08.69C770.65,565.5,770.65,565.57,769.74,565.57Zm3.2-.7c-.21,0-.56-.35-.77-.69s-.07-.7.28-.7a.72.72,0,0,1,.77.7C773.22,564.52,773.08,564.87,772.94,564.87Zm-3.34-9c-1.73-.07-1.53-1,.77-3.48s4-2.64,7.36-1.18l2.09.9-2.64.84a13.84,13.84,0,0,0-3.55,1.81C772.66,555.77,771.62,556.05,769.6,555.91Zm8.13,3.4c-.62,0-.9-.34-.69-.69s.55-.7.69-.7.49.28.7.7S778.36,559.31,777.73,559.31Zm-2.29,14c-.62.63-.83.49-.83-.83s.21-1.46.83-.84S776.07,572.72,775.44,573.35Zm1.95-7.09a.75.75,0,0,1-.7-.69.7.7,0,0,1,.7-.7.66.66,0,0,1,.69.7A.7.7,0,0,1,777.39,566.26Zm1.8-3.47a3,3,0,0,1-2.15-.7c-.28-.41.49-.69,1.67-.69s2.15.28,2.15.69S780.1,562.79,779.19,562.79Zm9.45,1.39a2,2,0,0,1,1.6.69c.56.91-.34.91-1.73,0C787.6,564.32,787.6,564.18,788.64,564.18Zm-.48,3.47c.28.42-1,.7-3.48.7s-3.75-.28-3.47-.7,1.81-.69,3.47-.69S788,567.23,788.16,567.65Zm-3.27-6.25h1.81l-1.53,1.53c-1.11,1.11-1.74,1.32-2.29.76C781.76,562.58,782.74,561.4,784.89,561.4Zm-4-17c0-2.29,4.66-4,6.81-2.57.77.42.49.9-1.11,2.08C784.13,545.62,780.86,545.9,780.86,544.44Zm23.28-2c-4.93,4.65-10.91,7.57-16.54,8l-4,.35,4-4.11c4.31-4.37,4.1-4.23,12.37-6.53C808.59,537.77,808.94,538,804.14,542.43Zm4.38-11c-1.18-.07-1.25-.21-.35-.42.63-.14,1.18-.7,1.18-1.11s.77-.84,1.74-.84,1.74.21,1.74.49C812.83,530.4,810.26,531.52,808.52,531.45Zm5.49-5.7c-1.11-.35,2.92-2.43,6.25-3.2,1.46-.35,2.71-.62,2.85-.69s.14.2.14.55-1,.91-2.22,1.11a20.88,20.88,0,0,0-4.24,1.53A5.21,5.21,0,0,1,814,525.75Zm3.61,4.38c-2,1.11-1.73-.84.49-3.06,1.81-1.81,3.06-2.3,3.06-1.25S819,529.43,817.62,530.13Zm8.83,5.83c-1.18-.83-1.18-1-.28-1a2,2,0,0,1,1.6.76C828.53,536.94,827.91,537,826.45,536Zm7.23-9.66a4,4,0,0,1-2.64,1.05,4.63,4.63,0,0,0-2.85,1,17.94,17.94,0,0,1-6.61,2.5c-.41,0,1.39-1.25,4-2.78a27,27,0,0,1,5.63-2.78,2.76,2.76,0,0,0,1.81-1.18c.9-1,1-1,1.18.07A3.09,3.09,0,0,1,833.68,526.3Zm.83-7.22c-.14-.42.28-.77.9-.77s1.05.35.91.77a.94.94,0,0,1-1.81,0Zm2.64,13.13c-2.15,0-1.67-1,.9-1.88s5.35-1.11,5.35-.48S838.75,532.21,837.15,532.21Zm5.63-17c-.21-.2.07-.69.62-1,1.33-.83,2.09-.83,2.09-.07S843.34,515.74,842.78,515.18Zm5,1.88c-.9.83-1.73,1.32-2,1-.7-.69,1.11-2.57,2.36-2.57C849,515.53,849,515.81,847.78,517.06Zm1.81-5.21c.9-1.11,2.15-1.6,2.15-.84a4,4,0,0,1-1.52,1.12C848.76,512.89,848.69,512.89,849.59,511.85ZM864,525.68a1.39,1.39,0,0,1-1.32.07c-.55-.21-.34-.42.42-.42S864.32,525.47,864,525.68Zm-1.8-7.37a.77.77,0,0,1-.77-.69c0-.42.14-.7.28-.7s.56.28.77.7S862.59,518.31,862.24,518.31Zm-.14-10.77c.83-.21,1.25-.76,1-1.18-1-1.67,4.45-2.57,7.71-1.32,1.19.48,1.12.69-1,1.67-5,2.22-7.57,2.92-8.41,2.08C860.85,508.24,861.06,507.89,862.1,507.54ZM860,520.4a2.18,2.18,0,0,1,1.81.69c.28.42-.35.7-1.32.7s-1.81-.35-1.81-.7S859.32,520.4,860,520.4Zm-1.53,7.36a1.39,1.39,0,0,1-1.32.07c-.55-.21-.34-.41.42-.41S858.76,527.55,858.48,527.76Zm-.69-2.57a1.88,1.88,0,0,1-2.5.07c-2.92-1.53-1-2.78,2.22-1.46C858.69,524.22,858.69,524.36,857.79,525.19Zm-1.25-21.12c.14.2-.07.76-.49,1.18s-.83.55-.83.14C855.22,504.41,856.05,503.58,856.54,504.07ZM857.3,518c0,.35-5.21,3.13-5.9,3.13-1,0-.14-2.22,1.25-2.78C854.32,517.69,857.3,517.41,857.3,518Zm-5.56-17.79c0-.76.35-1.18.7-1a1.74,1.74,0,0,1,.69,1.46c0,.56-.27,1-.69,1S851.74,501,851.74,500.17Zm2.51-6.81a1.46,1.46,0,0,1-.35,1.53c-.63.63-1,.63-1.32,0a1,1,0,0,0-1.53-.21,4.13,4.13,0,0,1-2.09.7c-.69-.07-.55-.49.63-1.39C851.4,492.46,853.48,492.18,854.25,493.36Zm-7-23.69c.55,0,1,.27,1,.69s-.49.7-1,.7-1.05-.35-1.05-.7S846.67,469.67,847.23,469.67Zm-4.8,16.74c1.32-1.32,5-1.73,6.53-.76s.84,1.25-2.08,1.39C842.92,487.25,841.67,487.11,842.43,486.41ZM842,475.23a.7.7,0,0,1-.7.69.74.74,0,0,1-.69-.69.69.69,0,0,1,.69-.7A.66.66,0,0,1,842,475.23Zm.69-19.88c0,1.18-3.54,4.31-5.63,4.93a1.85,1.85,0,0,1-2.36-.83c-1.53-1.94-1.25-2.92.9-3.33,1-.21,2.85-.7,4-1C842.57,454.24,842.71,454.31,842.71,455.35Zm-3.54-12.16a7.58,7.58,0,0,1,4.65-1.32c2.92,0,3,.07,2.23,1.39-1,1.6-1.74,1.74-2.09.55-.28-.69-1-.55-2.85.49C838.12,445.9,836.8,445.14,839.17,443.19Zm-1.19,5c.28-.07.84.56,1.26,1.39.9,1.67.27,2.85-.77,1.32-.69-1.11-.83-1-3.2,2.57-.62.91-.83,1-.69.21s-.9-1-6.81-.83c-4.66.21-6.74.07-6.26-.42S835.14,448.54,838,448.19Zm-16.81-13.34a.68.68,0,0,1,.69-.63c.42,0,.7.49.7,1.12s-.28.83-.7.62A1.47,1.47,0,0,1,821.17,434.85Zm6.67,13.27c.55,0,.83.28.62.7a1.93,1.93,0,0,1-1.46.69c-.55,0-.83-.34-.62-.69A1.74,1.74,0,0,1,827.84,448.12ZM828,439c-1,1.46-5.08,4.93-5.7,4.93-.21,0-.07-.69.42-1.59,1.59-2.78,3.54-4.66,4.86-4.66S828.74,437.84,828,439Zm-2.3-2.85c-.27-.28.21-1.46,1.05-2.57,1.46-2.09,2.78-2.78,2.78-1.53S826.17,436.73,825.68,436.17Zm.35-7.85c0-.56.35-1,.7-1s.69-.56.69-1.26c.07-1.11.07-1.11.7,0a2.85,2.85,0,0,1,.27,2.23C827.84,429.64,826,429.71,826,428.32Zm4.59-9.66c-.28.62-.63,1-.77.83a1.75,1.75,0,0,1,.07-1.53c.28-.62.63-1,.77-.83A1.68,1.68,0,0,1,830.62,418.66Zm4.45-3.34c0,.91-.84,1.53-1.53,1.11s-.07-1.66.9-1.66A.61.61,0,0,1,835.07,415.32Zm-5.29-2a7.84,7.84,0,0,0,1.81-3.13c0-1,2.43-1.32,3.06-.35.76,1.18-.35,2.64-3,4.1C828.05,416,827.63,415.88,829.78,413.31Zm-2.29,8.41c-1.67,1.46-3.54,1.8-3.54.83,0-.76,2.71-2.15,4.17-2.15C828.81,420.4,828.67,420.81,827.49,421.72Zm-1.81-18.84c.63-1,1.05-.76,1.05.49,0,.56-.35.83-.7.63A.86.86,0,0,1,825.68,402.88ZM824,408.1c1.87-1.88,2.36-2,3.26-.84,1.25,1.67,1.46,4,.42,5.35-1.11,1.67-3,1.95-3,.49a3.78,3.78,0,0,0-1.11-2.16C822.49,409.9,822.49,409.69,824,408.1Zm-.7,19.94c0,1-3.89,4.79-4.93,4.79-.49,0,.35-1.25,1.8-2.77C823.11,427,823.25,426.93,823.25,428Zm-6.88-24.6.7-2.71,2.08,2.85c1.74,2.29,2,3.19,1.67,5.14s-.76,2.36-1.81,2.09-1.32,0-1.32.83-.21,1-1,.35C815.4,410.94,815.33,407.19,816.37,403.44ZM816,417.55c-1,4.17-1.94,5.35-3.19,3.89-.7-.91-.63-1.67.62-4.24C815.54,412.75,817.07,413,816,417.55Zm-6.6,0c.84-.56.84-.91.07-2.09-1-1.53-.69-2.22,1.46-4.72,1.88-2.09,2.29-1.95.84.27a5.53,5.53,0,0,0-.7,4.45,7.26,7.26,0,0,1-.14,3.82c-.62,1.05-.76,1.05-1.6,0S808.52,418,809.42,417.55Zm-5.63,1c1.25-1.53,2.51-.56,4.1,3.2,1.05,2.36,1.88,3.4,2.85,3.4a2.13,2.13,0,0,1,1.74.7c.21.34,0,.69-.56.69a5.48,5.48,0,0,0-2.57,1.74c-2.08,2.22-2.78,2.22-2.78-.28,0-1.46-.41-2.08-1.46-2.36s-1.39-.77-1.11-1.95a4.9,4.9,0,0,0-.28-2.85A1.87,1.87,0,0,1,803.79,418.59Zm-.69,10.77a2.39,2.39,0,0,1,1.74.7c.55.9-1.39,1.66-2.85,1.11S801.36,429.36,803.1,429.36Zm-2.64,40.45c-1,1-1.81.27-1.25-1.26.34-.9.62-1,1.25-.41S801.08,469.18,800.46,469.81Zm-1.25-44.62c.21,0,.55.28.76.7s.07.69-.28.69a.76.76,0,0,1-.76-.69C798.93,425.47,799.07,425.19,799.21,425.19Zm-.63,35.44a1.34,1.34,0,0,1,1.11-.69.64.64,0,0,1,.63.69c0,.35-.49.7-1.11.7S798.37,461,798.58,460.63Zm-1.53,9.73c.28,0,.21.63-.21,1.39-.76,1.39-2.78,1.95-2.78.7C794.06,471.82,796,470.43,797.05,470.36ZM794.76,485c2,1.12,3.4-.55,1.6-1.94-1.11-.77-1.11-.83,0-.83a2.56,2.56,0,0,1,1.87,1.39,2.68,2.68,0,0,0,2.09,1.38c1.67,0,2.5,1.26,1.53,2.23-.56.55-1.11.49-1.88-.14-.55-.49-1.32-.63-1.6-.35s-.07.7.42.84c2.09.76-.42,4.37-3.13,4.37-1.94,0-2.85-1.73-1.73-3.47.55-.9.48-1.46-.42-2.29C792.05,484.61,792.81,483.91,794.76,485Zm-2.22,11.54c-.14,1.25-.91,2.09-2.44,2.71-2.22,1-2.29.9-2.29-.69a3.82,3.82,0,0,1,3.54-3.83C792.47,494.68,792.74,495.1,792.54,496.49ZM792,492c0,.35-.49.63-1,.63-1,0-1.39-.83-.63-1.6C790.87,490.44,792,491.07,792,492Zm-2.08-2.15a2.63,2.63,0,0,0-1.95,1c-.63,1.11-6.12,2.43-5.63,1.32.21-.35.76-1.46,1.25-2.5a6.19,6.19,0,0,1,2.92-2.57c2-.63,2.78-2.16,1.32-2.16a.73.73,0,0,1-.69-.69c0-1.46,1.45-.63,2.78,1.53C791.63,488.71,791.63,489.82,789.9,489.82Zm-1-13.13a.89.89,0,0,1,1.18-.35c.42.28.35.62-.2,1C788.71,478.08,788.23,477.66,788.85,476.69Zm-.28-27.25c1.19-.69,2.37,0,1.46.91a1.29,1.29,0,0,1-1.52.21C787.88,450.14,787.88,449.93,788.57,449.44Zm-.27,18.42c.21.21-.14,1.18-.77,2.22s-1.39,1.6-1.6,1.39.14-1.18.77-2.22S788.09,467.65,788.3,467.86Zm-3.62-7.92c1,0,1.74.28,1.74.69s-.76.7-1.74.7-1.73-.35-1.73-.7S783.71,459.94,784.68,459.94Zm-3.33,5.83c.34-1,.48-1,1,0a2.17,2.17,0,0,1,.21,1.81,2,2,0,0,1-1.74.7c-.69,0-1.88,1-2.64,2.36-1.81,3-4.17,4.45-4.73,2.85a2.18,2.18,0,0,1,.35-2c.63-.76.63-1.32-.07-2.43s-.69-1.6.35-2.64,1.39-1,2-.35C777.39,467.3,780.79,467.1,781.35,465.77Zm-.63-4.65c.28,1-1.8,1.18-5.49.42-1.94-.35-2.08-.49-1-1C776.27,459.73,780.37,460.15,780.72,461.12Zm-6.46-17.86a1.41,1.41,0,0,1,1.11-.7c.42,0,.49.28.28.7a1.62,1.62,0,0,1-1.11.69C774.12,444,774.05,443.61,774.26,443.26Zm.28,13.2a5.6,5.6,0,0,1,2.43-1.39c.42.07,0,.7-.9,1.39a5.57,5.57,0,0,1-2.44,1.39C773.22,457.78,773.63,457.16,774.54,456.46Zm-1.67,7c1.32,0,1.32.07-.07.77-1,.48-1.6,1.52-1.88,3.47-.48,3.48-2.29,5.56-4.58,5.28-1.39-.14-1.88-.69-2.16-2.22a3.38,3.38,0,0,0-1.67-2.5c-1.18-.42-1.18-.56.63-1.95a7.87,7.87,0,0,1,4.1-1.53,7.69,7.69,0,0,0,3.2-.69A5.4,5.4,0,0,1,772.87,463.48Zm-4.73-8.41c1.46,0,1.6.21,1,1-1.12,1.32-4.87,2.78-5.49,2.15S766.27,455.07,768.14,455.07Zm-1.73-4.44a6.08,6.08,0,0,0,1.66-2.78c.63-2.65,1.95-1.19,1.32,1.52s-2.15,4.17-3.33,3C765.43,451.67,765.5,451.32,766.41,450.63Zm-2.23-5.56c-1.25,1.46-1.67.69-.62-1.26.55-1,1-1.25,1.18-.69A2.81,2.81,0,0,1,764.18,445.07Zm6.33,14.87c-1.6,1.39-2.85,1.8-2.85,1s2.36-2.29,3.47-2.29C771.83,458.62,771.69,459,770.51,459.94ZM768,443.68c-.62-.21-.9-.7-.69-1.12a1.12,1.12,0,0,1,2.08.07C770.09,443.68,769.33,444.23,768,443.68Zm-4.86-37.74c1.53-.07,2.22.07,1.6.28a9.24,9.24,0,0,1-2.78,0C761.06,406.08,761.61,405.94,763.14,405.94Zm2.71,5.35a3.16,3.16,0,0,0,2.15-.69c.7-1.11,1.88-.77,1.6.48-.14.63-1.18,1.39-2.36,1.74a7,7,0,0,0-3.06,1.6c-.9,1.11-2.78,1.46-2.78.49C761.47,413.59,764.25,411.29,765.85,411.29Zm-6.18,6.26a1.29,1.29,0,0,1,1-.7,1.3,1.3,0,0,1,1,.7c.21.34-.21.69-1,.69S759.46,417.89,759.67,417.55Zm-.21,39.05c-.84.84-1.74,1.25-2,1s.21-1.11,1.11-1.87C760.71,454,761.4,454.66,759.46,456.6Zm.62,24.67c-.48,1.6-.69,1.74-1.11.7a2.24,2.24,0,0,0-2-1.18c-1.39,0-1.39-.07.21-1.74,1.88-2,2.5-2.16,3-.77A6.4,6.4,0,0,1,760.08,481.27Zm-1.25-79.71c.35,0,.14.63-.55,1.39s-1.39,1.25-1.6,1.05C756.19,403.58,757.93,401.56,758.83,401.56Zm-1.39,5.7c1.95-1,1.88-.9,1.88-.28,0,.35-.77,1-1.74,1.39C755.43,409.35,755.29,408.3,757.44,407.26Zm-1.94,56.15a1.75,1.75,0,0,1,1.46-.69c.55,0,1,.28,1,.69s-.63.7-1.46.7S755.29,463.76,755.5,463.41Zm-1-6.25c.42,0,.7.48.7,1.11s-.28.83-.7.62a1.48,1.48,0,0,1-.69-1.11A.69.69,0,0,1,754.45,457.16Zm1.32,43.29a7.6,7.6,0,0,0,4.31-2c1.67-1.81,2.71-2.16,2.71-.91,0,1-1.32,3.48-2.64,5-.76.9-1.25,1-1.6.41s-1.32-.55-3.75.35c-2,.84-3.47,1-3.89.63C749.87,502.88,752.65,500.87,755.77,500.45Zm-3.4-17.93a2.73,2.73,0,0,0-2.09.35c-1.66.9-1.8.21-.2-1.53s3-1.6,3,.21C753.06,482.31,752.79,482.73,752.37,482.52ZM750.08,469c1.8-1,2.57-.14,1.18,1.39a4.07,4.07,0,0,1-1.81,1.32C748.41,471.75,748.89,469.74,750.08,469Zm2-68.94c.42-.76.56-.76.83,0a1.47,1.47,0,0,1-.13,1.25C752.09,402.05,751.47,401,752.09,400.1Zm-1.39,59.14c.56,0,1,.35,1,.7,0,.83-1.94,1.73-2.5,1.18S749.59,459.24,750.7,459.24Zm-1.81-13.55a2.82,2.82,0,0,1-1.59,1c-.35,0-.14-.62.55-1.39C749.31,443.75,750.28,444,748.89,445.69Zm-1.66-5.21c.55,0,.83.28.62.69a1.48,1.48,0,0,1-1.11.7.69.69,0,0,1-.63-.7C746.11,440.76,746.6,440.48,747.23,440.48ZM746.81,472c0,1.11-1.25,2.15-1.88,1.53s.35-2.5,1.18-2.5C746.46,471.06,746.81,471.47,746.81,472ZM739,413.17c.9-.91,1.46-.49,1.11.9-.21.77-.63,1.39-1,1.39C738.4,415.46,738.26,413.79,739,413.17Zm-2.16,13.41c3-1.74,4.24-1.81,3-.21-.63.77-.21.63,1-.35,2.3-1.73,4.45-2,5-.55.2.55-.28,1.94-1.12,3.06-1.25,1.73-2.22,2.15-5.35,2.57C733.33,431.86,732,429.5,736.8,426.58Zm-2.29-7.44c.42.14.69.91.62,1.6-.34,1.81-.69,2.09-1.59,1.18S733.33,418.73,734.51,419.14Zm-.9,26.2c0,.35-.49.7-1.05.7s-1-.35-1-.7.49-.69,1-.69S733.61,444.93,733.61,445.34Zm-1.67-79.22c.55,0,.83.28.62.7a1.5,1.5,0,0,1-1.11.69.68.68,0,0,1-.62-.69C730.83,366.4,731.31,366.12,731.94,366.12Zm-6.4,55.67a1.8,1.8,0,0,1,2.44-.07c1.53.76,1.73.55,1.53-1.6a.94.94,0,0,1,1-1.18c.83,0,1,.34.76,1.11a7,7,0,0,0-.41,1.67c0,1.25-2.3,2.78-4.24,2.78C724.36,424.5,723.88,423.18,725.54,421.79ZM727.7,428h2.08l-2.15,1.32a11.88,11.88,0,0,0-2.71,2.09.78.78,0,0,1-1,.41,2.73,2.73,0,0,0-2.09.35c-1.53.83-1.6.69-1-1C721.44,429.64,724.92,428,727.7,428Zm-5.14-8.34a.63.63,0,0,1,.62.63c0,.83-1.39,1.73-1.87,1.25S721.72,419.63,722.56,419.63Zm-.91,5.7a2.15,2.15,0,0,1-1.11,1.11c-.49.14-.69-.14-.42-.83C720.61,424.36,722.07,424.08,721.65,425.33ZM721,349.79c.14.21-.07.76-.49,1.18s-.83.56-.83.14C719.71,350.14,720.54,349.3,721,349.79Zm-3.34,108.06c.77,0,1.18.28,1,.7a2,2,0,0,1-1.45.69c-.56,0-1-.35-1-.69S716.86,457.85,717.69,457.85Zm-2.5,44.55c.69-1.18,2.71-.63,3,.83.28,1.25-1,1.53-2.57.56A1.07,1.07,0,0,1,715.19,502.4Zm2.43,3.89c-.07.35-1.18,1.11-2.64,1.74-2.78,1.32-4.45.69-2.92-1.18C712.9,505.8,717.62,505.32,717.62,506.29Zm-2.36,5.42c-1.6,1.18-2.5,1.32-2.5.42,0-.35.55-.84,1.25-1C716.23,510.53,716.58,510.74,715.26,511.71Zm-2-19.53c.21.14-.07,1-.55,1.95s-1,1.25-1.18.69C711.23,493.92,712.69,491.63,713.24,492.18Zm-.48,49.06c.48,0,.48.42,0,1.46-.49.77-1,1.25-1.18,1C711,543.19,711.92,541.24,712.76,541.24Zm-.56,14.88c3.41-3.69,4.73-3.27,3.41,1.11-1,3.26-2.85,4.58-4.94,3.47-.76-.41-1.39-.9-1.39-1.11A29.53,29.53,0,0,1,712.2,556.12ZM709,453.4c.7-.55,1.46-.83,1.6-.69s-.27.76-1,1.25-1.46.83-1.6.7S708.24,453.89,709,453.4Zm-2.71,59.91c2.44-2.5,3.13-2.43,2.85.28-.14,1.39-.55,2.22-1,2.08s-.9.56-.9,1.6c0,1.6-.14,1.67-1.39.9C703.93,517,704.07,515.6,706.29,513.31Zm-1.87-164.56a.65.65,0,0,1,.69.69.69.69,0,0,1-.69.7.75.75,0,0,1-.7-.7A.7.7,0,0,1,704.42,348.75Zm-.7,108c0,.77-1.32,1-1.73.42-.21-.35.07-.7.62-.7S703.72,456.6,703.72,456.74Zm-3-43.57c.83-.91,1.59-.49,1.59.9,0,.77-.48,1.39-1,1.39C700.25,415.46,699.83,414,700.74,413.17Zm1.11,47.95c2.71-.56,3.26-.49,3.26.14,0,1.18-3,2.92-3.54,2.08s-2-.21-2,1.18c0,.56-.27,1-.69,1C697,465.5,699.62,461.54,701.85,461.12Zm.14,12.72a2.48,2.48,0,0,1-1.81.69c-.77,0-1.18-.35-1-.69s1-.7,1.8-.7S702.19,473.42,702,473.84Zm-6,18.41c1.81,3.06,3.2,3.2,2.64.35-.42-1.74-.21-2.09.9-2.09,1.39,0,2.78,1.88,2.78,3.76a1,1,0,0,1-1,1.11c-.56,0-1.53,1.46-2.15,3.54-1.12,3.34-3.41,5.35-4.66,4.17-.69-.62-1.53-10.77-1-12.16S694.34,489.47,696,492.25ZM692.33,464a.75.75,0,1,1,1.25.83.75.75,0,1,1-1.25-.83ZM682,592.11c-.21.49-.35.14-.35-.83s.14-1.32.35-.9A3.61,3.61,0,0,1,682,592.11Zm5.56-14.52c1.74-5.7,2-6.25,2.57-4.59.35,1.11.28,4.1-.21,7.72-.83,6-2.5,11.25-3.61,11.25C685,592,685.72,583.84,687.53,577.59Zm-2.85-182.07a1.4,1.4,0,0,1,.07,1.32c-.21.55-.42.34-.42-.42S684.47,395.24,684.68,395.52Zm-1,69.42c-1,1-1.81.28-1.25-1.25.35-.9.62-1,1.25-.42S684.33,464.32,683.71,464.94Zm-.14-6.11c0,.76-1.32,1-1.74.41-.21-.35.07-.69.63-.69S683.57,458.69,683.57,458.83Zm-3.13-51.71a1.34,1.34,0,0,1,1.12-.69.64.64,0,0,1,.62.69c0,.35-.49.7-1.11.7S680.23,407.47,680.44,407.12ZM680.1,518a1.44,1.44,0,0,1,.69,1.12c0,.41-.28.48-.69.27a1.6,1.6,0,0,1-.7-1.11C679.4,517.83,679.75,517.76,680.1,518Zm1.52,82.49c.28,6-.48,11.68-1.52,11.68-.42,0-.7-1.39-.7-3.06C679.4,600.66,681.28,593.23,681.62,600.45ZM576.62,364a1.48,1.48,0,0,1-1.11-.7c-.21-.42.07-.69.62-.69s1.12.27,1.12.69A.69.69,0,0,1,576.62,364ZM580,371a.75.75,0,0,1-.7-.7.69.69,0,0,1,.7-.69.65.65,0,0,1,.69.69A.7.7,0,0,1,580,371Zm.06-3.48c-1.59,0-2.43-1-1.8-2.15s2.71-.42,3,1C581.42,367.09,581.07,367.51,580.09,367.51Zm-59.2,27.1a1.43,1.43,0,0,1,1.11.7c.21.35.14.69-.28.69a1.6,1.6,0,0,1-1.11-.69C520.4,394.89,520.47,394.61,520.89,394.61Zm2.08,6.26c-1.11,0-2.71-1.32-2.71-2.23s1.11-.62,2.43.84C523.67,400.59,523.74,400.87,523,400.87Zm-21.12,16c-.63,0-.91-.35-.7-.69s.56-.7.7-.7.48.28.69.7S502.47,416.85,501.85,416.85ZM470.71,528.46c-.62.62-1.94-.42-1.46-1.25.28-.42.7-.42,1.18.07S471,528.18,470.71,528.46Zm9.25.28a.75.75,0,0,1-.7-.7.69.69,0,0,1,.7-.69.65.65,0,0,1,.69.69A.7.7,0,0,1,480,528.74Zm.48-14.32c1-.9,1.95-1,5.21-.69a39.71,39.71,0,0,1,5.7.83c1.25.28,1.6.83,1.6,2.22-.14,2.57-.83,2.92-6.53,2.92C479.89,519.7,477.38,517.48,480.44,514.42Zm24.95-20.29c1.32-1.88,2.36-1.95,2.36-.21s-1.87,3.34-2.78,2.43C504.56,495.93,504.69,495.1,505.39,494.13Zm-1.46-12.58a.89.89,0,0,1,1.18-.35c.42.28.42.7-.07,1.18C504.14,483.29,503.24,482.59,503.93,481.55Zm4.59,27.73A10.76,10.76,0,0,1,516,513l1.67,1.74-1.53.83c-1.46.77-4.72.56-7.43-.48-.91-.35-1-.21-.21,1.18,2,3.75-2.92,3.19-11.75-1.46-2.85-1.46-5.9-2.71-6.81-2.71-3.06,0-1.32-3.27,2.57-4.8,2.64-1,4.8-.9,9.59.63A30.59,30.59,0,0,0,508.52,509.28Zm9.31-6a1.81,1.81,0,0,1,.83,2.09c-.69,1.87-2.92,1-3.12-1.19C515.26,502.12,515.88,501.84,517.83,503.3Zm-21.54,16.33a.9.9,0,0,1-1.19.35c-.41-.28-.34-.63.21-1C496.42,518.24,496.91,518.66,496.29,519.63Zm-15,4c0-.83.77-1.32,2.78-1.73a3.39,3.39,0,0,1,1.32.55c.77.49.7.77-.48,1.39C482.94,524.84,481.34,524.77,481.34,523.59Zm1.53,8.76c-.14-.49.14-.7.84-.42s1.11.77,1.11,1.11C484.82,534,483.22,533.39,482.87,532.35Zm1.95-4.8c-2.78-.48-2.64-1.25.56-2.5,2.84-1.18,3.61-1,3.61.91C489,527.55,487.46,528.11,484.82,527.55Zm16.89,9.94c-1.46-.28-4.24-.69-6.12-.83a9.3,9.3,0,0,1-6.25-2.78l-2.78-2.43,3.12.41a63.89,63.89,0,0,1,6.95,1.46c5,1.46,6.81,2.36,7.3,3.62C504.21,537.77,503.79,537.84,501.71,537.49Zm5.76-6.39c.63,1.6-2.29,1.74-6.88.48-5.62-1.66-10.21-4-10.21-5.28,0-1.66,4.17-3.89,6.74-3.61,1.39.14,2.36-.14,2.57-.7.49-1.25,1.11-1.11,4.31,1,4.59,3.12,7.85,5.9,7.5,6.53a3.9,3.9,0,0,1-2.36.56C507.68,530.13,507.2,530.4,507.47,531.1Zm2.09,8.13a.82.82,0,0,1,.07-1c.62-.63,2.29-.49,2.29.21S510,539.92,509.56,539.23Zm9.59-14.8c-.9,2.57-2.64,2.71-5.49.34-1.25-1-3.06-2.43-3.89-3s-1.32-1.39-1-2,.76-.62,1.39-.07,2.22.49,4,.28c2.57-.35,3.26-.21,4.37,1A2.68,2.68,0,0,1,519.15,524.43Zm2.85,12c-1.11,0-1.74-.42-1.74-1.11s.42-1,1-.7,1.05.07,1.05-.34.34-.49.69-.28a1.74,1.74,0,0,1,.7,1.46C523.74,536,523,536.38,522,536.38Zm-.35-8.41c0-.42.35-.49.7-.28a1.44,1.44,0,0,1,.69,1.12c0,.41-.28.48-.69.27A1.62,1.62,0,0,1,521.65,528Zm-.28-7.3a5.73,5.73,0,0,0-.21-3.26c-1.32-1.6-1.73-4.87-.76-5.42,1.11-.7.9-.7,2.22-.21s1.53,2.36.42,2.36a.69.69,0,0,0-.69.7c0,.34.9.48,2,.27,1.46-.27,3.27.14,6.12,1.53,2.22,1.05,4.31,2.09,4.65,2.23s.42,0,.14-.49c-.69-1.11-.14-1,2.85.7a11.33,11.33,0,0,0,4.59,1.46c2.15-.07,2.29.27.69,2.08s-.83,2.22,1.39,1.18c1.6-.69,2-.55,4.1,1.81,1.25,1.46,2.71,3.26,3.27,4,.9,1.25.83,1.32-.7.83a67.3,67.3,0,0,1-6.18-2.85c-2.5-1.32-4.59-2.08-4.73-1.66a1.85,1.85,0,0,1-1.6.69c-1,0-1.32-.49-1.32-2.29,0-4-.55-4.24-6.32-3.27a31.54,31.54,0,0,0-7.16,1.81C521.51,524.15,520.82,523.59,521.37,520.67Zm3.76-12.3c0-.34.62-.13,1.39.56s1.25,1.39,1,1.6C527.14,511,525.13,509.28,525.13,508.37Zm4.72-3.54a13.16,13.16,0,0,0,4.73,1,8.55,8.55,0,0,1,4.17,1c1.25,1,1.25,1-.35,1.66s-1.53.63-.42,1.12a2.27,2.27,0,0,0,2-.28c1-1,2.5-.84,2.5.35a1.7,1.7,0,0,1-1.18,1.45,14.61,14.61,0,0,0-2.43,1.05c-1.74.9-2.65.76-2.65-.42,0-.63-.62-1-1.66-1-2,0-6.67-4.1-6.67-5.77C527.91,503.93,528.11,503.93,529.85,504.83Zm-2.64-16.4a.74.74,0,0,1-.69-.7.69.69,0,0,1,.69-.69.66.66,0,0,1,.7.69A.7.7,0,0,1,527.21,488.43Zm12.93,12.51a1,1,0,0,1,1,1c0,1.11-1.88,2-2.85,1.39S538.89,500.94,540.14,500.94Zm-12.79,27.52c-2.64.55-3.82-1.25-2-3,1-1,1.26-1,2.23-.21s1.25.83,1.87-.28a1.73,1.73,0,0,1,3.13.07C532.91,526.09,530.2,527.9,527.35,528.46Zm-2.78,4.17c-.56-.63,1.25-1.81,2.85-1.81.62,0,1.18.28,1.18.7C528.6,532.35,525.26,533.25,524.57,532.63Zm13.27,17.86c3.2-1.67,4.52-1.88,5.91-1,1.18.7.42,1.32-4.52,3.83-4.38,2.22-4.38,2.22-4.38.2C534.85,552.36,535.62,551.53,537.84,550.49Zm.49-7.86a.7.7,0,0,1,.69-.69.66.66,0,0,1,.7.69.7.7,0,0,1-.7.7A.75.75,0,0,1,538.33,542.63Zm3.47-2.57c0-.9.21-.9,1.05-.21a3.07,3.07,0,0,1,1,1.88c0,.9-.21.9-1,.21A3,3,0,0,1,541.8,540.06Zm-5.9,27.59c.55,0,1,.14,1,.28a4.17,4.17,0,0,1-1,1.11c-.84.7-1,.7-1-.28A1.09,1.09,0,0,1,535.9,567.65Zm-2.78-2.08c.21-.42.55-.7.76-.7s.28.28.28.7a.76.76,0,0,1-.76.69C533.05,566.26,532.91,565.91,533.12,565.57Zm9.52,14.8c1,1.88-.42,1.39-2.85-.83a13.23,13.23,0,0,1-2.92-4.17c-.42-1.19-1-2.16-1.46-2.16s-.42.28-.21.7c.49.76-.55,1-1.25.2-.49-.48.77-2.29,1.6-2.29a8.57,8.57,0,0,1,2.22.9,12.65,12.65,0,0,1,2.85,2,8,8,0,0,0,2,1.46c.69.21.69.63.14,1.67A2.2,2.2,0,0,0,542.64,580.37ZM542,563.48c-2.22,0-3-.28-3-1,0-1.32,1.39-1.32,3.9,0l2,1Zm3.27-8.68a3.23,3.23,0,0,1-1.95,1c-.9,0-.83-.21.28-1C545.35,553.48,546.39,553.48,545.28,554.8Zm.69-12.51a.86.86,0,0,1-.34-1.12c.62-1,1-.76,1,.49C546.67,542.22,546.32,542.5,546,542.29Zm2.16,38.91c-.21-.21.07-.69.62-1,1.32-.83,2.09-.83,2.09-.07S548.68,581.76,548.13,581.2Zm2-15.63a.69.69,0,0,1-.69.69.75.75,0,0,1-.7-.69.7.7,0,0,1,.7-.7A.65.65,0,0,1,550.14,565.57Zm-.69-10.5c0-1.39.9-2.36,1.25-1.32a1.61,1.61,0,0,1-.49,1.6C549.66,555.91,549.45,555.84,549.45,555.07Zm.48-18.27c-3.82-2.92-5.62-3.89-7.15-3.89-.84,0-.28.76,1.66,2.15,1.6,1.18,2.92,2.43,2.92,2.78,0,.9-.76.76-2-.35s-3.06-1.32-6.67-1.18c-1.88.14-1.95.21-.84,1,.63.49,1.18,1,1.18,1.25,0,.77-7.92,1.12-9.31.42-3.06-1.53-3.89-2.71-3.12-4.17.62-1.18,1.25-1.39,3.61-1a36.47,36.47,0,0,1,3.89.55,1,1,0,0,0,1.25-.83c.21-.9-.14-1-1.53-.83-2,.41-2.15.07-.55-1.53s6.18-1.11,13.9,1.32c3.12,1,6.81,2.29,8.13,2.85,2.36,1,2.43,1.11,1.32,2.43C554.94,539.72,553.48,539.51,549.93,536.8Zm13.9,11.53c.84.84,1.46,1.6,1.32,1.74-.41.42-3.89-1.11-3.89-1.74C561.26,546.94,562.3,546.87,563.83,548.33Zm.21-5.7c.77,0,1.39.28,1.39.63,0,.9-1.81,2.22-2.29,1.67A1.29,1.29,0,0,1,564,542.63Zm.49,22.8c.14-.28-.07-.63-.42-.84s-.76.07-1,.63a1.89,1.89,0,0,1-1.67,1c-1,0-1.25-.41-1-2.08.35-2.64,1.74-2.64,4.38-.07,2.29,2.29,3,5.21.76,3C564.81,566.47,564.39,565.71,564.53,565.43Zm.21,7.16c0,.76-.28,1.32-.63,1.32-.69,0-1.46-1.67-1.46-3.27,0-.9.21-.9,1-.21A3.34,3.34,0,0,1,564.74,572.59Zm-5.56,4a2.19,2.19,0,0,1-1.25-1.81c-.21-1.32.07-1.53,1.87-1.53,1.11,0,2.3.35,2.57.84C563,575,560.64,576.83,559.18,576.55Zm2.64-19c-.63.62-3.34-.28-3.34-1.12s1.46-.76,2.78.07C561.82,556.88,562.1,557.37,561.82,557.58Zm-4.59-11.68c-.21-1.11-.07-1.18,1.18-.49.84.42,1.46,1.05,1.46,1.46C559.87,548.12,557.44,547.22,557.23,545.9Zm-2.15,25.64c-.77-.48-.14-3.19.69-3.19.35,0,.63,1.11.63,2.43s-.35,2.43-.77,2.43-.55-.28-.27-.62A.81.81,0,0,0,555.08,571.54Zm.07-12.44c-.21-1.11-.07-1.18,1.18-.34.83.48,1.46,1.18,1.46,1.46C557.79,561.33,555.36,560.29,555.15,559.1Zm-2.92-4a.69.69,0,0,1,.69-.62c.42,0,.7.48.7,1.11s-.28.83-.7.63A1.52,1.52,0,0,1,552.23,555.07Zm1.32,9.32a1.9,1.9,0,0,1-.42-1.88c.7-1.67,1.18-1.32,1.18.76C554.31,564.66,554.1,564.94,553.55,564.39Zm10.14,15.28c2.16,1.12,1.74,1.67-1.39,1.88s-3.82.07-3.82-1-1.18-1.39-3.26-1.11a.73.73,0,0,1-.91-.7C554.31,577.59,561.12,578.28,563.69,579.67Zm-8.06,4.66c-2.08-1.18-1.6-2.29.77-1.81,1.18.21,3.06.63,4.17.84s2.08.69,2.08,1C562.65,585.23,557.3,585.16,555.63,584.33Zm8.41,3.13c-1.94,1-3.4,1.39-3.75,1-.9-.83.14-1.81,2.36-2.22C566.68,585.51,567,585.86,564,587.46Zm2.78-3.82c-1.39.9-2.78.9-2.78,0,0-.42.84-.7,2-.7C567.45,582.94,567.66,583.08,566.82,583.64Zm-.69-36.84c-.77-.41-1.25-1-1-1.46.63-1,1.53-.76,2,.49C567.73,547.5,567.66,547.64,566.13,546.8Zm.41-14.94c1.88-1.39,3.9-1.32,3.62.14s-2.09,2-3.82,1.32C565.36,532.91,565.36,532.77,566.54,531.86Zm3.41,9.25a8.14,8.14,0,0,1,1.67,2.22l1,1.74-1.81-1.6c-1.25-1.18-1.8-1.39-2.08-.7s-.49.7-1.18.07C566,541.38,568.14,539.79,570,541.11Zm5-8.07a15.5,15.5,0,0,0,4.45-1.8c2-1.39,2.71-1.39,2.71-.07,0,.69.7,1,2.15,1,1.88,0,2.09.14,1.32,1a2.91,2.91,0,0,1-1.73,1,2.91,2.91,0,0,0-1.74,1c-1,1.18-4.59,1.39-5.21.34a1.78,1.78,0,0,0-1.46-.69c-.56,0-.84.28-.63.69.49.77-1.46.84-3.33.07S571.2,533.88,575,533Zm-.48-2.22c0-.42.62-.69,1.46-.69s1.18.27,1,.69a2,2,0,0,1-1.46.7C574.88,531.52,574.47,531.17,574.47,530.82Zm10.42-3.47c.56.34.76.83.49,1.11s-1,0-1.67-.63C582.46,526.58,583.15,526.23,584.89,527.35Zm8,.69c-.55-.9.49-.9,2.71,0s2.5,3.13.21,2.5a6.89,6.89,0,0,0-4.17,1c-2.57,1.39-2.57,1.39-2.57,0,0-.77-.49-1.39-1-1.39-1.53,0-1.25-1.12.55-1.88a4.38,4.38,0,0,1,3.13-.14C592.74,528.53,593.16,528.46,592.88,528Zm4.8-44.2c-.28,1.32-.07,1.81,1,2.16,1.53.48,1.88,1.39.76,2.08-.34.21-1.53-.41-2.5-1.39-1.74-1.74-1.74-1.87-.55-3.19C598,481.76,598.23,481.83,597.68,483.84Zm-2.37-112.3c0-.42.42-.42,1.05.14s.9,1,.76,1.18C596.63,373.35,595.31,372.38,595.31,371.54ZM597.75,428a1.12,1.12,0,0,1,2.08.07c.7,1-.07,1.6-1.39,1C597.82,428.87,597.54,428.39,597.75,428Zm24.32,37.53a18.07,18.07,0,0,1-5.84-2.5c-.42-.35,2.09-3.06,2.78-3.06a8,8,0,0,1,2.29,2.29C623.39,464.94,623.53,465.5,622.07,465.5Zm.76-19c.49-1.26,1.95-1.53,1.53-.28a2.18,2.18,0,0,1-1.11,1.11C622.76,447.43,622.56,447.15,622.83,446.46Zm-5.21,5.83c-1.39,2.09-1.67-.14-.42-2.64.7-1.39,1.46-2.85,1.67-3.19s-.21-.42-.9-.21c-.84.34-1.32,0-1.74-1.11-.69-1.81-.35-2.65.9-2.16.56.21,1.12-.28,1.33-1,.55-2.16,1.87-1.74,1.87.48A31,31,0,0,1,617.62,452.29Zm-1.74-12.71c-.27.27-.76.07-1.11-.49-1.11-1.74-.76-2.43.49-1.18C615.88,438.53,616.16,439.3,615.88,439.58Zm-2.29-10.85c-1.67-.83-2.71-2.15-1.74-2.15.35,0,1.18.7,1.95,1.46C615.12,429.57,615.12,429.57,613.59,428.73Zm-.35,20.16c.84,1.32.77,1.39-.69,1.18a2.23,2.23,0,0,1-1.81-1.46C610.39,446.94,612.13,447.15,613.24,448.89Zm-2.64-5.28c-.83-1.95-.83-2.57,0-2.09.42.21.7,1.11.63,2C611.23,444.93,611.16,444.93,610.6,443.61Zm2.3-33a6,6,0,0,1-2.3-1.74c-.9-1-1.32-1.74-.9-1.74a5.92,5.92,0,0,1,2.29,1.74C612.9,409.83,613.31,410.6,612.9,410.6ZM611.44,452a8,8,0,0,1,2.5,3.05c2.92,5.08,1.67,8.41-3.13,8.41-1.88.07-1.88.07-.62,1s1.32,1.05-.14,1.05c-2.09,0-3.83-2.92-3.48-5.91.28-2.71.07-3-1.25-1.25-.49.69-1.11,1-1.39.76C603.17,458.27,610.25,451.53,611.44,452Zm8.2,77.69c0-1.46,1.11-1,2.43.9.62,1,1,2,.76,2.16C622.28,533.32,619.64,530.82,619.64,529.64Zm1.46,40.79a.77.77,0,0,1-.77-.69c0-.42.14-.7.28-.7s.56.28.76.7S621.44,570.43,621.1,570.43Zm1.66-58.37c-2.29,0-2.43-.14-2.43-2.3a6.57,6.57,0,0,1,.42-2.78c.69-.62,2.92.7,3.75,2.3C625.68,511.43,625.33,512.06,622.76,512.06Zm-4.86-17.38c-1.81-1.18-1.88-1.39-.63-1.39a4.45,4.45,0,0,1,2.71,1.39C621.58,496.49,620.61,496.49,617.9,494.68Zm-14.94,12c0-1.88.21-2.23,1.74-2.23a7.26,7.26,0,0,1,3.82,1.88c2.29,2.08,4.17,6.53,3.68,8.62-.42,1.59-3.47,3.61-4.45,3C606.43,517.06,603,509,603,506.64Zm2.64,56.7a2.43,2.43,0,0,1-1.11-1.87c-.21-1.11.07-1.53.69-1.32a2.43,2.43,0,0,1,1.11,1.87C606.5,563.13,606.22,563.55,605.6,563.34Zm-13.14-18.69c-3.68-1.6-4.37-2.71-1.66-2.71,1,0,1.73.28,1.73.69s1.19,1.26,2.64,2C598.65,546.53,596.77,546.46,592.46,544.65Zm3.55,9.73c0,.9-2,2.43-2.57,1.94s1-2.57,1.94-2.57A.63.63,0,0,1,596,554.38Zm-7-16.61c0-.42.49-.7,1.11-.7s.84.28.63.7a1.49,1.49,0,0,1-1.12.69A.68.68,0,0,1,589.06,537.77Zm6.39,4.86a5.44,5.44,0,0,1-1.53-2c0-.9,5.77,0,6.4.9C601.92,543.89,597.82,544.86,595.45,542.63Zm4.1,15.92c2.09-2.92,2.92-2.57,2.37.9-.49,3-2,5-3.48,4.52C597.4,563.55,598,560.84,599.55,558.55Zm2.71,7a.66.66,0,0,1,.7.69.7.7,0,0,1-.7.7.75.75,0,0,1-.69-.7A.7.7,0,0,1,602.26,565.57Zm-.55-27.24c-1.74.27-5-1.53-5-2.71,0-.91,2.51-.21,4.87,1.32l1.74,1.18Zm4.17-46.84c1.53.76,2.71,3.89,1.46,3.89a10.94,10.94,0,0,1-3-2.43c-2-2.09-2.3-2.71-1.6-3.69a5,5,0,0,0,.42-3.12c-.49-2.44,1-2.51,1.59-.14a3.33,3.33,0,0,1-.41,2.78C603.38,490,603.58,490.38,605.88,491.49Zm-2.16-27.38a1.64,1.64,0,0,1-1.11-.7c-.21-.41-.14-.69.28-.69a1.42,1.42,0,0,1,1.11.69C604.21,463.76,604.14,464.11,603.72,464.11Zm-.76,5.63c0,.41-.28.48-.7.27a1.62,1.62,0,0,1-.69-1.11c0-.42.35-.48.69-.28A1.43,1.43,0,0,1,603,469.74Zm5.49,6.88a.7.7,0,0,1,.76.69c0,.35-.14.7-.28.7s-.55-.35-.76-.7S608.1,476.62,608.45,476.62Zm3.19,45.17a3,3,0,0,1,1.05,1.53c0,.41-.49.34-1.05-.14a3.06,3.06,0,0,1-1-1.53C610.6,521.23,611.09,521.3,611.64,521.79Zm.14-24.53c.7-.77,1.32-.56,2.37.62.69.9.69,1.18-.07,1.67C612.27,500.66,610.32,498.71,611.78,497.26ZM615.54,524c1.94-2.43,2.71-2,3.19,1.74s-.76,4.45-3.05,2.08l-1.81-1.74Zm-.63,12.51c.7-.7,1.32-.42,2.92,1.25s1.95,2.22,1.32,2.85-1,.42-1.67-1c-1-2.23-2-2.44-2-.49,0,.76-.28,1.39-.7,1.39C613.8,540.55,613.94,537.49,614.91,536.52Zm3.55-47.4c-1.05,0-1.12-.13-.21-.69,1.32-.83,1.39-.83,1.39,0C619.64,488.78,619.08,489.12,618.46,489.12Zm-1.88-2.22c-.77.14-1.32-.28-1.6-1.18s-.83-1.46-1.32-1.46-1-.63-1-1.32a2.2,2.2,0,0,0-.7-1.81c-.35-.21-.69.14-.69.77,0,1.11-.07,1.11-1.39-.07a4.27,4.27,0,0,1-1.39-1.88c0-1.39,2.92-.35,6.25,2.29C618.32,485,618.87,486.48,616.58,486.9ZM608,360.56a3,3,0,0,1-1.53-1c-.48-.56-.55-1-.14-1a2.92,2.92,0,0,1,1.53,1C608.31,360.08,608.38,360.56,608,360.56Zm-1.46,73a.64.64,0,0,1,.63.69c0,.35-.49.7-1.11.7s-.84-.35-.63-.7A1.34,1.34,0,0,1,606.5,433.53Zm-.35,19a3,3,0,0,0-2.15,1.81c-.21.76-.76,1.39-1.18,1.39-1.46,0-3.34-2.3-3.34-4.17,0-3.55,3.27-4.59,6.54-2C608.24,451.32,608.31,452,606.15,452.57Zm-5.62,8.06c.2.35-.07.7-.63.7s-1.11-.35-1.11-.7a.64.64,0,0,1,.62-.69A1.34,1.34,0,0,1,600.53,460.63Zm-5.22,10.77a1.62,1.62,0,0,1-.69-1.11c0-.42.35-.48.69-.28a1.43,1.43,0,0,1,.7,1.12C596,471.54,595.73,471.61,595.31,471.4Zm-6.25,78.88c0,.35-.14.69-.28.69s-.55-.34-.76-.69-.07-.7.28-.7A.72.72,0,0,1,589.06,550.28Zm-2.57,20.15c-2.23,0-7.85-2.43-7.85-3.33,0-2.09,3.89-2,6.94,0S589,570.43,586.49,570.43Zm-5.07,6.81c0,.77-2.85,2.36-3.34,2-.21-.28.21-.91,1-1.46C580.51,576.62,581.42,576.41,581.42,577.24Zm2.64-25c-1-.55-1.6-.55-2.16,0-1.18,1.19-1.87.91-1.87-.62,0-1.11.48-1.39,2.43-1.39,1.67,0,2.57.42,3.12,1.39C586.42,553.27,586.07,553.41,584.06,552.29Zm-1.95-13.13a.7.7,0,0,1,.7-.7.66.66,0,0,1,.69.7.69.69,0,0,1-.69.69A.74.74,0,0,1,582.11,539.16Zm-5.7,23.77c1.32,1.32,1,2.08-.55,1.25-.77-.42-1.39-1-1.39-1.39C574.47,561.81,575.44,562,576.41,562.93Zm-1.94-17.79c0-.63.34-1.12.69-1.12a.65.65,0,0,1,.7.63,1.32,1.32,0,0,1-.7,1.11C574.81,546,574.47,545.69,574.47,545.14ZM570,567a1.52,1.52,0,0,1-1.11.69.69.69,0,0,1-.63-.69c0-.42.49-.7,1.11-.7S570.16,566.54,570,567Zm1.39-17.79c-.56-.28-1-.7-1-1s.48-.62,1-.62a1.07,1.07,0,0,1,1,1C572.38,549.17,572,549.38,571.34,549.17Zm.83,19.59a1.78,1.78,0,0,1,1.46-.07,26.29,26.29,0,0,0,2.64.77c1.05.28,1.67.9,1.67,1.74,0,1.59-.9,1.73-2.08.27a3.8,3.8,0,0,0-2.51-1C571.69,570.43,571.2,569.74,572.17,568.76Zm.91,10.36a2,2,0,0,1-.7-1.46c0-.56.35-.83.7-.63a1.78,1.78,0,0,1,.69,1.46C573.77,579.05,573.49,579.33,573.08,579.12Zm31.48,1a6.56,6.56,0,0,0-3.34.63c-1,.9-9.45,2.64-17.79,3.54s-10.42.49-9.87-2.36c.56-2.64,2-3.62,3.55-2.37,1.8,1.6,6,2.92,7.5,2.37,1.25-.49,1.25-.56.07-1.18s-1.25-1.32.35-5.49c.49-1.25.76-1.46,1.25-.77s1,.77,2.78.14c3-1,3.68-.42,3.2,2.78-.28,1.67-.14,2.71.27,2.71,1,0,3.48-4.17,3.48-5.77s-.28-1.6,5.7,1.81a35.81,35.81,0,0,1,5.14,3.34C607.06,579.88,606,580.16,604.56,580.16Zm3.61-6.53c-1.32.55-2.08,0-1.39-1a1.13,1.13,0,0,1,2.09-.07C609.07,572.93,608.8,573.42,608.17,573.63Zm2-14c-.28.56-.56,1-.7,1s-.28-.48-.28-1,.28-1,.7-1S610.39,559.1,610.19,559.66ZM612.9,535c-.91,1-2,.49-3-1.46-.91-1.67.41-1.81,2.5-.35C613.38,534,613.52,534.36,612.9,535Zm1.18,41a.75.75,0,0,1-.7-.69.7.7,0,0,1,.7-.7.66.66,0,0,1,.69.7A.7.7,0,0,1,614.08,576Zm1.73-13.2c-.55,0-1-.35-1-.7s.49-.69,1-.69,1.05.28,1.05.69S616.37,562.79,615.81,562.79Zm6.81,13.76c-2.29-.21-2.64-.42-2.43-1.81.28-1.74-.07-1.88-2-.83-.91.55-1.32.48-1.32,0,0-2.16,5.83-2.3,7.5-.21S625.4,576.76,622.62,576.55Zm3.55-56.08a.71.71,0,0,1-1,.2.7.7,0,0,1-.21-1,.75.75,0,1,1,1.25.84Zm.28-5.49c-.35,1-3.34,1.66-3.34.69s.84-1.53,2.29-1.53C626.1,514.14,626.59,514.49,626.45,515Zm-.91-13.35c-1.32-1.32-2.43-2.64-2.43-3.05s1.11.34,2.43,1.66,2.44,2.64,2.44,3.06S626.86,503,625.54,501.63Zm-.27-13.06a2,2,0,0,1,1.18,1.18c.21.56-.07.83-.63.63a2,2,0,0,1-1.18-1.19C624.43,488.64,624.71,488.36,625.27,488.57Zm4.1,59.62a.74.74,0,0,1-.7-.69.7.7,0,0,1,.7-.7.66.66,0,0,1,.69.7A.69.69,0,0,1,629.37,548.19Zm3.12,12.51a4.17,4.17,0,0,1-1-1.11c0-.14.49-.28,1-.28a1.09,1.09,0,0,1,1,1.11C633.54,561.4,633.33,561.4,632.49,560.7Zm.42-99.79c.42-1.11.9-1.67,1.11-1.18a3.82,3.82,0,0,1-.48,2.29C632.42,464.18,631.94,463.34,632.91,460.91Zm1,12.23a3.34,3.34,0,0,1,1,2.16,2.79,2.79,0,0,0,1.59,2.08A7.65,7.65,0,0,1,639.3,480a12.8,12.8,0,0,0,3.62,3.61c1.8,1.26,2.29,2,2,3.06-.62,1.95-.69,1.95-2.22,1.11a8.14,8.14,0,0,0-3.13-.76c-2.64,0-4.52-2.71-5.7-8.2C632.56,472.45,632.56,472,633.88,473.14Zm4-8.2c.84.14,1.6.7,1.6,1.25,0,1.53-2.71,1.32-3-.21C636.25,464.94,636.52,464.73,637.84,464.94Zm3.69-14.66a.89.89,0,0,1,1.18-.35c.42.28.35.63-.21,1C641.39,451.67,640.9,451.25,641.53,450.28Zm10.21,22.65c1.32,1.18,1.67,3.34.56,4-.35.21-1.67-.55-2.92-1.66-1.46-1.39-2-2.16-1.25-2.16.9,0,.9-.07,0-.69s-.7-.7.62-.7A4.74,4.74,0,0,1,651.74,472.93Zm-2.57-9.59c.63-1,2-.41,2.29,1,.14.69-.2,1.18-.83,1.18A1.48,1.48,0,0,1,649.17,463.34Zm5.21,18.21c.84,1.53.91,4.59.07,5.07-.62.42-4.93-4-4.93-5.14,0-.9,2.22-2,3.26-1.6A3.66,3.66,0,0,1,654.38,481.55Zm-.83-20.92a1.51,1.51,0,0,1,1.18.77c.77,1.18-.07,1.46-1,.27C653.13,461.05,653.13,460.63,653.55,460.63Zm1.53,27.45a1.41,1.41,0,0,1,.69,1.11c0,.42-.27.49-.69.28a1.62,1.62,0,0,1-.7-1.11C654.38,487.94,654.73,487.87,655.08,488.08Zm-14.39,12.65c1.6-.14,3.48-.28,4.17-.35s1.18.14,1.18.49c0,1.74-5.76,3.4-7.36,2.08S637.57,501,640.69,500.73Zm-2.29-9.24c0-1.6.9-2.85,1.25-1.74a2.87,2.87,0,0,1-.49,1.95C638.47,492.88,638.47,492.81,638.4,491.49Zm3.47,6.46c-2.15.28-2.78.14-2.78-.63,0-1.87,2.37-3.05,6.4-3.26a3.15,3.15,0,0,1,2.29.62C648.41,495.66,645.07,497.53,641.87,498Zm5.56-20c0-1.25.14-1.32,1.05-.63a2.9,2.9,0,0,1,1,1.46c0,.35-.49.63-1,.63S647.43,478.77,647.43,477.94Zm5.15,26.47c1,1.81,1,2.16.14,2.5-1.88.7-3.55-.06-3.76-1.66C648.41,501.29,650.42,500.87,652.58,504.41ZM648.2,469a1.62,1.62,0,0,1-1.11-.69c-.21-.42-.14-.7.27-.7a1.43,1.43,0,0,1,1.12.7C648.68,468.62,648.62,469,648.2,469Zm-4.94-5.91c-.62-.76-.69-1.52-.13-2.91.34-1.12.9-2.51,1.11-3.2.48-1.6,1.39-1,2.43,1.46C648.2,462.09,645.49,465.77,643.26,463.06Zm-.83,86.8c-.69-.42-.07-1.67.9-1.67a.62.62,0,0,1,.63.56C644,549.65,643.13,550.28,642.43,549.86Zm7.92-6.88a3.67,3.67,0,0,1-2.22-2.08A3.16,3.16,0,0,0,645.9,539c-1.45-.21-1.59-.49-1.38-3.89s.06-3.68-1.19-3.27a1.63,1.63,0,0,1-2.08-.83c-.42-.7-.77-.83-.77-.42,0,1.32-1.18,1.11-1.73-.35a42.33,42.33,0,0,1-1.39-4.86c-.77-3.27-.77-3.82.34-5.21s1.12-1.74.42-2.57c-2.15-2.51-4-12.1-2.71-13.42.63-.69.63-.69,3.75,1,2.16,1.11,2.78,1.73,2.51,2.78-.63,2.22.76,1.46,2.22-1.32l1.32-2.57.69,1.8c.91,2.37,4.17,3.69,7.58,3.06,2.43-.35,3-.14,5.91,2.43,4.1,3.62,4.65,5.14,2.57,7.37-1.32,1.39-1.74,2.85-2.09,7.43-.48,6.33-2.15,10.64-5.76,14.74C652.3,543.05,651.6,543.4,650.35,543Zm6.12-71.23a.66.66,0,0,1,.69.7.7.7,0,0,1-.69.69.75.75,0,0,1-.7-.69A.7.7,0,0,1,656.47,471.75Zm-.35-17.37a1.41,1.41,0,0,1,1.11-.7c.42,0,.49.28.28.7a1.6,1.6,0,0,1-1.11.69C656,455.07,655.91,454.73,656.12,454.38Zm13.2,39.54a1.48,1.48,0,0,1-1.18.76c-.41,0-.41-.41.14-1C669.25,492.46,670.09,492.74,669.32,493.92Zm.42-10.08c.63-.76,1-.9,1.18-.27a1.33,1.33,0,0,1-.62,1.45C669,485.86,668.63,485.16,669.74,483.84Zm2.36,14.39c1.74,1.53,2.3,2.43,1.81,2.92s-1.25.27-2.29-.7a12.09,12.09,0,0,0-3.13-1.94c-1.74-.49-2.08-1.46-.69-1.95S669.6,496,672.1,498.23Zm-4.86,52c.21-.42,1.11-.7,2-.7,1.25,0,1.32.14.48.7C668.28,551.18,666.68,551.18,667.24,550.28Zm.62,19c-1.52.56-2.36-.07-2.36-2,0-2.29.56-2.78,2.36-2.08C669.32,565.85,669.32,568.76,667.86,569.32Zm1.74-32.73c1,1,1,1.87-.28,1.87-1.8,0-1.94-1.87-.41-6.39a27.64,27.64,0,0,0,1.46-5.63c0-1.32.07-1.39,1.39-.14a4,4,0,0,1,1.39,2.09,3.86,3.86,0,0,1-1.32,2C669.81,532.21,668.56,535.55,669.6,536.59Zm.21,11c-.28-1,4.52-1.18,6.12-.14.83.55.83.69-.14,1C674.05,549.24,670.16,548.61,669.81,547.64Zm4.73-15.43c-.91-1.32-.91-2.08,0-2.08.41,0,.69.69.69,1.52C675.23,533,675.09,533,674.54,532.21Zm-10.78-46.7c-.48-.49,2.37-4,3.2-4a.62.62,0,0,1,.63.56C667.59,482.87,664.18,485.93,663.76,485.51Zm2.3,14.94a13.2,13.2,0,0,1,4.65,1.46c1.39.9,1.74,1.74,1.74,3.89,0,1.46-.28,2.85-.62,3.06s-2.3-.83-4.24-2.43c-2.57-2-3.41-3.06-2.85-3.62s.35-1-.49-1.66C663.21,500.24,663.42,500.17,666.06,500.45Zm0,52.82c.9,1.87,1.46,3.54,1.18,3.82-.83.83-2.78-1-3-2.92-.14-1-.55-1.67-.9-1.46s-.63.07-.63-.42-.28-.55-1,.07c-1.53,1.25-1.88.56-.63-1.32C662.65,548.82,664.11,549.44,666.06,553.27Zm-6,11.74a2.14,2.14,0,0,1,1.11,1.53c.21.83-.07,1.18-.69,1a2.14,2.14,0,0,1-1.11-1.53C659.18,565.15,659.46,564.8,660.08,565Zm-.76-2.71c-1,1-2.16-.42-2.16-2.5,0-1.6,1.18-1.53,2.16.28C659.87,561.19,659.87,561.74,659.32,562.3Zm1.32-2.64a3,3,0,0,0-1.39-2.43,2.57,2.57,0,0,1-1.39-1.88c0-1,.28-.9,1.6.35a12.56,12.56,0,0,0,3.47,2.15c2.29.91,2.36,1.74.35,3.13C661.47,562.3,660.64,561.88,660.64,559.66Zm-5.28,3.13c-.56,0-1-.63-1-1.39s.28-1.39.63-1.39.76.62,1,1.39S656,562.79,655.36,562.79Zm-1.67,21.89c-.56-.63-.56-1-.14-1a1.49,1.49,0,0,1,1.18.76C655.5,585.58,654.66,585.86,653.69,584.68Zm1-16.75c-1.25-1.39-1.53-2.08-1-2.71,1-1.25,3.33-.49,4.65,1.46C660.43,569.88,657.44,570.92,654.73,567.93Zm3.68,26.89c-.2,1.6-.27,1.6-1.46-.55-1.66-3.06-1.52-4.31.28-2.57A3.86,3.86,0,0,1,658.41,594.82Zm10.78-16.33c-2.92,3.89-8.14,5.91-5.91,2.37,1.11-1.88,1-2.09-.56-2.09-1,0-1.39-.49-1.39-1.74s-.34-1.73-1.39-1.73c-1.39,0-1.8-.77-.9-1.6.21-.28,2.15-.49,4.24-.49h3.82l-.49,2.16-.41,2.22,1.46-1.88c1.59-2,3.4-2.43,3.4-.69A9.06,9.06,0,0,1,669.19,578.49Zm3.12-7.36c-2.85,0-3.33-.91-1.94-3.55.55-1,1.53-1.32,4.17-1.32,2.22,0,3.47.28,3.47.84C678,569,675,571.13,672.31,571.13Zm4.8-11a1.92,1.92,0,0,0-1.74,1.73c-.14.91-.42,1.6-.69,1.6a14.5,14.5,0,0,0-2,.42c-1.46.42-1.53.28-1.25-3.48.21-2.22,0-4-.42-4.23-1-.63.63-2.44,3.2-3.55s3.13-1.18,3.4-.14a26.08,26.08,0,0,1,.7,4.17C678.64,559.66,678.57,559.94,677.11,560.15Zm-.49-44.27c0-.56.35-1,.7-1s.69.48.69,1-.28,1-.69,1S676.62,516.44,676.62,515.88Zm2.09,5.28c0,.42-.28.49-.7.28a1.62,1.62,0,0,1-.69-1.11c0-.42.34-.49.69-.28A1.41,1.41,0,0,1,678.71,521.16Zm-2.09-16c-.42,0-.69-1.67-.69-3.75,0-3.41-.21-4-2.09-5.29-2.71-1.94-2.64-3.12.21-4,3.2-1,4.1.14,4.24,5.15C678.36,501.77,677.66,505.11,676.62,505.11Zm-1.39-16.68c0,.35-.49.69-1.11.69s-.83-.34-.63-.69a1.33,1.33,0,0,1,1.12-.7A.64.64,0,0,1,675.23,488.43Zm.77-52.12a.63.63,0,0,1,.62.63c0,.83-1.39,1.73-1.88,1.25S675.16,436.31,676,436.31Zm.69,22.93c-.76,0-1.53-1.8-1-2.36s1.6.21,1.6,1.39C677.32,458.83,677,459.24,676.69,459.24Zm-1-83.18a1.4,1.4,0,0,1,.07,1.32c-.21.56-.42.35-.42-.42S675.44,375.78,675.65,376.06Zm-2.78,41.49c.62,0,1,.34.83.83-.41,1.25-1.94,1.46-1.94.28A1.09,1.09,0,0,1,672.87,417.55Zm1.81,9.73c.27,0,.55.62.55,1.39a2.49,2.49,0,0,0,1.11,1.94c.63.35,1,1,.7,1.46s-1.18.28-2.71-.83l-2.57-1.74C671.34,429.22,673.91,427.28,674.68,427.28Zm-4.31-16.34a1.34,1.34,0,0,1,.69,1.12.64.64,0,0,1-.69.62c-.35,0-.7-.48-.7-1.11S670,410.74,670.37,410.94Zm-2.78,9.73a1.44,1.44,0,0,1,.69,1.12c0,.41-.28.48-.69.27a1.62,1.62,0,0,1-.7-1.11C666.89,420.53,667.24,420.47,667.59,420.67Zm3.75,55.39c1.74,2.43,1.46,4.73-.56,4.73-2.85,0-3.89-.77-3.89-2.71C666.89,474.6,669.53,473.42,671.34,476.06ZM665.78,470a2.29,2.29,0,0,1-1.95,1.05c-1.46-.07-1.46-.07-.13-1.05C665.43,468.69,666.27,468.69,665.78,470Zm-1.67-41.34c.42,0,.7.83.7,1.8s-.28,1.6-.7,1.32a2.41,2.41,0,0,1-.69-1.8C663.42,429.29,663.76,428.67,664.11,428.67Zm-.69,32a.66.66,0,0,1,.69.7.7.7,0,0,1-.69.69.75.75,0,0,1-.7-.69A.7.7,0,0,1,663.42,460.63Zm-2.78,3.48c1.53-1,2.43-.42,2.43,1.46s-1.6,2.22-2.71.41C659.8,465,659.8,464.59,660.64,464.11Zm-1.39-23.63a.66.66,0,0,1,.69.69.7.7,0,0,1-.69.7.75.75,0,0,1-.7-.7A.7.7,0,0,1,659.25,440.48ZM659,478.14a1.48,1.48,0,0,1,1.25,1.26c0,1.52-2,1.25-2.29-.21C657.79,478.21,658.07,477.94,659,478.14Zm-1.18-27c-.07,1-4.87-4.38-4.87-5.42a6.27,6.27,0,0,0-1.73-2.43c-1.67-1.53-2.44-4.94-1.12-4.94.42,0,1.19.7,1.74,1.53a5.7,5.7,0,0,1,1.11,2.37,18.72,18.72,0,0,0,2.44,4.44C656.75,448.75,657.86,450.69,657.86,451.18Zm-2.5-53.79c.2,0,.55.28.76.7s.07.69-.28.69a.76.76,0,0,1-.76-.69C655.08,397.67,655.22,397.39,655.36,397.39Zm0,7.09c.62.84.9,1.67.76,1.88-.42.35-3.13-2-3.13-2.85C653,402.47,654.31,403,655.36,404.48Zm-1,11.68c.56.34.84.83.63,1-.56.55-2.71-.35-2.71-1.11S653.06,415.32,654.38,416.16Zm-.9,12.51c.14,0-.07.62-.49,1.32-.76,1.46-2.08,2.57-2.08,1.73C650.91,431.17,653,428.67,653.48,428.67ZM651.19,418a1.75,1.75,0,0,1,.07,1.53c-.42.42-2.44-1.25-2.44-2C648.82,416.37,650.77,416.78,651.19,418Zm-1.25,31.41c2.91,1.81,4.23,3.41,3.4,4.24-.21.21-1,0-1.81-.48-1.18-.77-1.46-.63-2.15,1-1.11,2.57-1,2.5-2,1.95-.55-.35-.48-1,.28-2.16,1.46-2.08,1.39-2.36-.28-2.36a3.64,3.64,0,0,0-2.5,1.74,3.7,3.7,0,0,1-2.08,1.73c-1.39,0-1.18-1,.41-2.43,1.12-1,1.32-1.81,1-3.68-.42-2.23-.35-2.37,1.11-1.88A31.42,31.42,0,0,1,649.94,449.37Zm-1.81-4.72c0,1.53-.49,1.74-2,.76-1.11-.69-.41-2.15,1-2.15C647.71,443.26,648.13,443.88,648.13,444.65ZM646.74,356a1.75,1.75,0,0,1,.69,1.46c0,.56-.27.84-.69.63a2,2,0,0,1-.7-1.46C646,356.11,646.39,355.84,646.74,356Zm-2.09,43.44c.42,0,.7.48.7,1s-.14,1-.28,1-.42-.48-.69-1S644.31,399.48,644.65,399.48Zm0,14.94c.42.21.7,1.18.7,2.15s-.28,1.53-.7,1.32a3,3,0,0,1-.69-2.15C644,414.77,644.24,414.21,644.65,414.42Zm1,8.41c1.8.69,2.78,3,1.73,4.17-1.11,1.39-3.4,1.25-3.4-.28a15.68,15.68,0,0,0-.42-2.78C643.13,422.34,643.68,422.06,645.63,422.83Zm-2.37,18.34c0,.35-.69,1.05-1.52,1.46-1.6.84-1.6.84-.28-.69S643.26,440.13,643.26,441.17Zm-2.08-6.95c.42,0,.69.49.69,1.12s-.27.83-.69.62a1.48,1.48,0,0,1-.7-1.11A.69.69,0,0,1,641.18,434.22Zm-1.6,25.51c.77-.84,1.6-.56,1.6.55a1.07,1.07,0,0,1-1,1.05C639,461.33,638.75,460.49,639.58,459.73Zm-4.17-49.06c1.88-1.12,2.16-.91,1.74,1s-1,2.15-2.16.76C634.3,411.64,634.44,411.22,635.41,410.67Zm1.6,30.85c-.9.56-2.78-1.67-2.36-2.78.62-1.53,1.32-1.25,2.22.7C637.29,440.34,637.36,441.31,637,441.52Zm-2.43-17.72c.62-1,1.53-.83,2,.49a1.65,1.65,0,0,1-.14,1.73C635.69,426.79,634,424.84,634.58,423.8Zm2.5,22.24,1.67,1.39-2,1.74c-2.57,2.29-3.13,2.22-3.68-.63C632.42,444.51,634.09,443.47,637.08,446Zm-3.89-84.78c.55,0,1,.27,1,.69s-.49.7-1,.7-1-.35-1-.7S632.63,361.26,633.19,361.26Zm-2,59.48c.63-.62,1.6.21,1.6,1.39,0,.56-.28,1-.63,1C631.45,423.11,630.69,421.3,631.24,420.74Zm.21,10.71c.42,0,.7.13.7.27s-.28.56-.7.77-.69.07-.69-.28A.75.75,0,0,1,631.45,431.45Zm.21,19.45c.21.77.07,1.6-.28,1.81s-.62-.42-.62-1.39C630.76,449.17,631.17,449,631.66,450.9Zm-1.11,40.66c-.63,2-.49,2.64.55,3.82s1,1.67.56,2.15c-1,1.05-2.29.21-2.29-1.46a1.66,1.66,0,0,0-.77-1.53c-.55-.2-.49-1,.35-2.43a10.78,10.78,0,0,0,1.11-3.12c0-.49-3.13-2.78-7-5.08-7.16-4.24-9.24-6.25-7.5-7.36,1.32-.77-.77-6.47-2.51-6.74-1-.28-1.18.06-.76,2.43s.35,2.57-.63,1.32c-2-2.64-1.11-5.35,2.09-6.19,1.81-.48,7.3.14,9,1.05.91.48,1,.9.49,1.45-1.46,1.46-.76,2.23,1.81,2.23h2.64l.55,4.17a55.79,55.79,0,0,0,1.88,8.48C631,488.29,631.17,489.61,630.55,491.56Zm-4.87-61.3c.63.63.91,1.39.63,1.67s-.77.07-1.11-.48C624.08,429.71,624.43,429,625.68,430.26Zm2.57,30c.49,1.94-.14,4-1,3.47s-.83-5.14,0-5.14C627.56,458.55,628.05,459.31,628.25,460.22Zm-.27-4.45c0,.35-.49.69-1.05.69s-1-.34-1-.69.49-.7,1-.7S628,455.35,628,455.77Zm-.7-39.34c-.07,1.46-.07,1.46-1,.14a5.65,5.65,0,0,1-1-2.78c.07-1.46.07-1.46,1-.14A5.82,5.82,0,0,1,627.28,416.43Zm-4.38-60.59c1.25-2.23,2.64-2.3,2-.14a5.71,5.71,0,0,0,.35,3.12c.55,1.53.55,2.23-.28,3s-1,.77-1.46-.48c-.21-.77-.77-1.46-1.11-1.46C621.37,359.87,621.58,358.13,622.9,355.84Zm-.48,25.92a1.33,1.33,0,0,1,.69,1.11.64.64,0,0,1-.69.62c-.35,0-.7-.48-.7-1.11S622.07,381.55,622.42,381.76Zm.07,42.87c.76,1.46.76,1.53-.28.63a2.63,2.63,0,0,1-1.18-1.53C621,422.69,621.65,423,622.49,424.63Zm-5.22-74c.56-.48,2.78.56,3.41,1.6.21.42-.21.7-.9.7C618.32,352.92,616.58,351.32,617.27,350.62Zm-1.53,11.61c.63-1.67,1.12-1.11,1.12,1.25-.07,1.95-.14,2.09-.77,1A3.16,3.16,0,0,1,615.74,362.23Zm.42,56.78c0,.41-.28.48-.69.27a1.6,1.6,0,0,1-.7-1.11c0-.42.35-.48.7-.28A1.44,1.44,0,0,1,616.16,419Zm-1.39-73a.66.66,0,0,1,.7.69.7.7,0,0,1-.7.7.74.74,0,0,1-.69-.7A.69.69,0,0,1,614.77,346Zm-.83,2.71c1.6,1,.69,3.2-1.39,3.4-1.32.14-1.95-.14-2.3-1.18C609.49,348.4,611.58,347.15,613.94,348.68Zm-4.17,15.43c.83.55,1.53,1.18,1.53,1.46,0,.83-.42.62-1.81-.91S608.17,363.13,609.77,364.11Zm-4.45-16.47c1.6-1.12,3.2-1.32,3.2-.28a.69.69,0,0,1-.7.69c-.34,0-.48,1-.28,2.23l.42,2.29L606,350.62C604.07,348.75,604.07,348.68,605.32,347.64Zm-.42,70.6c.91.42,1.46,1,1.25,1.25s-1-.14-1.66-.83C603.38,417.41,603.38,417.41,604.9,418.24Zm-1.32,12.51a.72.72,0,0,1,.77.7c0,.34-.14.69-.28.69s-.56-.35-.76-.69S603.24,430.75,603.58,430.75Zm.77,8.76c0-.63.35-1.12.69-1.12s.7.63.7,1.39c0,2.3-6.26,8.55-7.44,7.37-.69-.69,1.32-2.5,2.78-2.5s1.32-.14-.42-1.95a9.25,9.25,0,0,1-2.29-4.17c-.42-2.08-.35-2.22,1.39-2.22a2.35,2.35,0,0,1,2.5,1.67C603,440,604.35,441,604.35,439.51Zm-9.45-87.22c.69-1.11,1.66-.9,3,.63,1.52,1.73,1.73,4.31.34,4S594.34,353.2,594.9,352.29Zm1.11,11.4a4.66,4.66,0,0,0,1.39-3V359l2.29,1.74c1.18,1,2.36,2.29,2.43,2.92.21,1-.13,1.11-2.15.76s-2.43-.27-2.78,1c-.42,1.6-2.57,2-2.57.55A4,4,0,0,1,596,363.69ZM593,369.53c.42-.77.56-.77.84,0a1.51,1.51,0,0,1-.14,1.25C593,371.47,592.33,370.43,593,369.53Zm1,62.75a3.9,3.9,0,0,1,2.3,1.39c.55,1,.48,1.53-.49,2.43-1.18,1.18-1.32,1.18-2.29-.07C592,434,592.26,432,594,432.28ZM591.56,439c.56-.83,2.92.63,4.17,2.57a5.2,5.2,0,0,1,.77,3.27c-.28,1.46-.28,1.46-.42-.21a3.12,3.12,0,0,0-3.06-3C592.26,441.52,591.21,439.58,591.56,439ZM593.92,449c0,1.39-1.73-.07-1.94-1.67s-.14-1.6.9-.35A5.45,5.45,0,0,1,593.92,449Zm-3.47-20.36a.65.65,0,0,1,.69.69.69.69,0,0,1-.69.7.75.75,0,0,1-.7-.7A.69.69,0,0,1,590.45,428.67Zm-.7,37.87c2,1.32,3.9,4.38,3.2,5-1,1-3.47-1-5.28-4.17a26.28,26.28,0,0,1-2.09-4.17c0-1,1.53-.41,1.88.77A5.88,5.88,0,0,0,589.75,466.54Zm3.48,7.3c0,.34-.49.69-1.11.69s-.84-.35-.63-.69a1.33,1.33,0,0,1,1.11-.7A.65.65,0,0,1,593.23,473.84Zm-7-45.52c0,.55-.28,1-.7,1s-.69-.49-.69-1,.35-1,.69-1S586.28,427.76,586.28,428.32Zm-.7-4.94c0-.55.35-.83.7-.62a1.3,1.3,0,0,1,.69,1.11.64.64,0,0,1-.69.63C585.93,424.5,585.58,424,585.58,423.38Zm0,15.36a1.73,1.73,0,0,1,0,2.78c-.41.28-.69-.35-.69-1.39S585.17,438.46,585.58,438.74ZM587,371c.42,0,.7.62.7,1.46s-.28,1.18-.7,1a2,2,0,0,1-.69-1.46C586.28,371.4,586.63,371,587,371Zm-1.87-6.12a2.54,2.54,0,0,1,1.11,1.67c.21,1.11.07,1.18-.9.35C584,365.77,583.85,364.52,585.1,364.87Zm-1.6,3.34a.65.65,0,0,1,.69.69.69.69,0,0,1-.69.7.74.74,0,0,1-.69-.7A.68.68,0,0,1,583.5,368.21Zm-2,69.21c.77,1,.7,1-.76.84a2.48,2.48,0,0,1-2-1.12C578.43,436,580.37,436.1,581.48,437.42Zm-4.58,33.64c.55,0,1,.27,1,.69s-.49.7-1,.7-1-.35-1-.7S576.34,471.06,576.9,471.06Zm2.43,28.42c3.68-1.46,3.89-1.53,5.49-.63.7.35,2.92,3.13,4.93,6.19,4.52,6.95,4.38,8.06-1,7.5-2.08-.2-3.82-.07-3.82.21,0,.84,3.27,2.5,6.05,3.13,2.5.49,3.68,2,3.19,3.89-.41,1.46-1.25,1.74-1.94.63s-1.74-.84-1.32.34c.55,1.39-1.39,1.39-2.51-.07-.62-.69-1.8-1-3.4-.83-2,.14-2.57.56-2.71,1.74-.14.9-.7,1.6-1.18,1.6a10.29,10.29,0,0,0-3.27,1.32c-1.18.76-2.43,1.25-2.78,1s-1,0-1.6.42c-1.46,1.25-2.43.2-2.5-2.64l-.07-2.58-1,2.3-1,2.36-2-2.85c-2.15-2.92-3.06-3.4-3.82-2.15a1.63,1.63,0,0,1-1.18.69c-.7,0-.56-1.11.48-3.68s-1-1.11-2.43,1.6c-1.18,2.36-1.74,2.78-3.68,2.78s-2.09.14-.9.83c.76.42,3,.56,5.28.35,3.82-.35,4-.28,5.77,2,2.36,2.92,2.43,4,.2,3.48-1-.21-1.94-.14-2.15.28-.49.83-4.52.9-5.77.13a1.53,1.53,0,0,1-.42-1.87c.35-.91.28-1.11-.27-.77-1,.63-5-2.08-5-3.4,0-.49-1.25-2-2.78-3.41l-2.78-2.5,1.88-.69a58.65,58.65,0,0,0,10.15-4.73c1.46-.9,3.19-1.53,3.82-1.39s1.74-.62,2.57-1.87C567.38,505.94,574.33,501.42,579.33,499.48Zm-13.9,4.38c0-.35.7-1,1.6-1.39,2-1,2-1,1.53-.14C567.93,503.37,565.43,504.55,565.43,503.86Zm7.51-14.6c1,.21,1.18,1.12,1.18,5.08l-.07,4.86-3,.49c-3.61.62-6.18,2.15-6.95,4.24-1.18,3-5.91,6.11-14.18,9.17-3.75,1.39-4.65,1-4.65-2.5a8.77,8.77,0,0,0-1.74-4.1c-2-2.78-2.08-3.06-.62-4.45s3.54-1.39,6.11-.07c2.29,1.18,6,1.39,6,.28,0-.42-.63-.56-1.53-.28-1.25.42-.9-.21,1.53-2.78,6-6.32,9.52-8.69,12.85-8.69,1.67,0,3.27-.34,3.48-.76A1.73,1.73,0,0,1,572.94,489.26Zm-10.15-5.69c-1.39,0-2.92-1.26-2.92-2.37,0-.41.35-.35.84.14a3.25,3.25,0,0,0,2.08.84c.7,0,1.25.27,1.25.69S563.49,483.57,562.79,483.57Zm1.6,4.86c.56,0,1,.28,1,.69s-.48.7-1,.7-1-.35-1-.7S563.83,488.43,564.39,488.43Zm6.6-16a2.48,2.48,0,0,1,1.39,1.73c0,.84-.28.84-1.39-.14-.76-.69-1.39-1.45-1.39-1.8S570.23,472,571,472.45Zm-4.17,2.08c2.64,1.39,3.89,2.57,3.27,3.2-.42.41-9.52-2.92-10.43-3.82C558.27,472.52,563.9,473.07,566.82,474.53Zm-4.93-11.81a.71.71,0,0,1,.76.69c0,.35-.14.7-.28.7s-.55-.35-.76-.7S561.54,462.72,561.89,462.72Zm-2.64,5.7c.9.06,1.6.48,1.53.9-.28,1-2.51.83-2.85-.21C557.72,468.48,558.13,468.21,559.25,468.42ZM558,466a3.65,3.65,0,0,1-1.74,0c-.49-.21-.14-.34.83-.34S558.41,465.77,558,466Zm-.84-58a.91.91,0,0,1,0,1.8c-.41.14-.76-.27-.76-.9S556.75,407.82,557.16,408ZM556,445.76c1.18.42,1.53,1.67.56,1.67a5.46,5.46,0,0,1-1.95-1C553.27,445.34,554,445,556,445.76Zm-2.08,20.5c2.78,2.16,2.15,2.92-1,1.18-1.53-.9-2.78-1.8-2.78-2.15C550.14,464.32,552,464.8,553.9,466.26Zm-4.1-68.17a1.3,1.3,0,0,1,1.11-.7.64.64,0,0,1,.62.7c0,.35-.48.69-1.11.69S549.59,398.44,549.8,398.09Zm-.28,53.23c.76,1,.62,1-1.46.83-1.25-.13-2.43-.62-2.64-1.11C545,449.79,548.41,450,549.52,451.32ZM544.58,403c.42,0,.7.63.7,1.46s-.28,1.18-.7,1a2,2,0,0,1-.69-1.46C543.89,403.37,544.24,403,544.58,403Zm1,65.6c3.68.28,4.37.63,7.08,3.27,2.92,2.85,4.11,3.48,12.31,6.39,2.15.77,4,1.67,4,2,0,1-3.55.69-10.43-1.11a53.07,53.07,0,0,0-8.75-1.74c-2.57,0-3.55-1-3.9-3.82-.2-2.09-.2-2.09-4.23-1.95-2.92.07-4-.07-3.76-.69C538.4,469.11,541.46,468.21,545.56,468.55ZM544.17,477c.62.21,1.11.7,1.11,1.11,0,1-3,.35-3.34-.69S542.43,476.41,544.17,477Zm-3.41-4c.56-.83,2.92-.83,3.55.14a1.34,1.34,0,0,1-.28,1.46C543.19,475.5,540.21,474.11,540.76,473.07Zm-4.17,5.35c-3-1.32-3.33-2.78-.41-1.73a8,8,0,0,1,2.91,1.73C540.14,479.67,539.58,479.67,536.59,478.42Zm5.28-18.69c.91,1,.84,1-.55.28-1.67-.84-2-1.46-1-1.46A2.61,2.61,0,0,1,541.87,459.73Zm-1.11-6.05c.21.35.14.7-.28.7a1.64,1.64,0,0,1-1.11-.7c-.21-.41-.14-.69.28-.69A1.42,1.42,0,0,1,540.76,453.68Zm-2.43-50c1.32,0,1.46.21.83.83s-1,.63-1.66,0S537,403.65,538.33,403.65ZM536.66,453c.56,0,.84.28.63.69a1.5,1.5,0,0,1-1.11.7.69.69,0,0,1-.63-.7C535.55,453.27,536,453,536.66,453ZM534,457.16a3,3,0,0,1,1.53,1c.49.56.56,1,.14,1a3,3,0,0,1-1.53-1C533.67,457.64,533.6,457.16,534,457.16Zm-2.64,4.17a.65.65,0,0,1,.69.69c0,.35,1,.7,2.3.7,2.92,0,4.86,1.39,4.24,3-.7,1.8-3.62,1.45-5.91-.84C530.69,462.79,530.13,461.33,531.38,461.33Zm1,17.44a36.21,36.21,0,0,1,5.56,1,39.88,39.88,0,0,0,7.72,1.05c4.23,0,7.92.62,7.92,1.39,0,.55-3.55,1.25-9.94,1.8-2.22.21-3.82.7-3.54,1,.69,1.19,5.76,4.1,7.08,4.1s3.2-1.66,3.76-3.33c.14-.63,1.53-1,3.89-1.11,3.4-.07,3.68,0,3.33,1.32a12.65,12.65,0,0,0-.41,2.64c0,.69-.28,1-.7.83-1-.69-.83.42.42,1.81,1.46,1.67.14,4.38-1.88,3.75-1-.35-1.32-.14-1.32,1s-.76,1.74-2.43,2.51c-3.34,1.39-4,1.25-3.4-.63l.41-1.53-1.6,1.46c-1.39,1.25-2.91,1.6-9.31,2l-7.64.41.14-7.78.14-7.85,2.71.21c1.52.06,3-.14,3.26-.56s-.69-.76-2.71-.76-3.19-.28-3.19-.84-.21-.62-.84,0c-1.11,1.11-3.33,1-3.33-.07S530.69,478.84,532.42,478.77Zm15.08,9.66a3.06,3.06,0,0,1-1.53-1c-.48-.56-.55-1.05-.14-1.05a3,3,0,0,1,1.53,1.05C547.85,487.94,547.92,488.43,547.5,488.43Zm-21-11.12a2.23,2.23,0,0,1,1.73.63,1.13,1.13,0,0,1-.48,1.32c-.63.55-1.11.41-1.74-.63S525.33,477.31,526.45,477.31Zm-5.49-.69a.65.65,0,0,1,.69.69.7.7,0,0,1-.69.7.75.75,0,0,1-.7-.7A.69.69,0,0,1,521,476.62Zm-1.39-11.12a.69.69,0,0,1-.63.69,1.5,1.5,0,0,1-1.11-.69c-.21-.42.07-.7.62-.7S519.57,465.08,519.57,465.5ZM517.83,412c.55,0,1,.27,1,.69s-.49.7-1,.7-1-.35-1-.7S517.27,412,517.83,412Zm-1.46,57.75c.76-.07,1.18.13.9.34a1.4,1.4,0,0,1-1.32.07C515.4,469.94,515.61,469.74,516.37,469.74Zm-.63,8.27a7.23,7.23,0,0,1,2,.76c2.29,1.18,4.66,3.54,4.24,4.17-.21.35-1.6.63-3.13.63-2.22,0-2.85-.35-3.54-1.67C514.56,480.3,514.84,478,515.74,478Zm.49,11.6a28.08,28.08,0,0,1,4.73-4.17c2.36-.83,3.47-.49,3.89,1.39a20.52,20.52,0,0,0,1.8,4.38c2,3.75,1.53,7.92-.62,6.18-1.25-1-1.18.07.14,1.95,1.6,2.29.07,2.57-2.5.42-1.25-1.11-2.78-1.88-3.48-1.74s-2-.76-3.06-2.09c-1.39-1.73-1.73-1.94-1.39-.76.63,2.36-.83,2.57-2.08.28C512.62,493.36,512.62,493.36,516.23,489.61ZM513.31,503c0,2.51-1.74,4.1-3.33,3.06-2.58-1.6-1.39-5.07,1.66-5.07C513,500.94,513.31,501.29,513.31,503Zm-3.47-4.79a.69.69,0,0,1,.69-.7.66.66,0,0,1,.7.7.69.69,0,0,1-.7.69A.73.73,0,0,1,509.84,498.16Zm-3.48-29.88c.77,0,1.39.27,1.39.55,0,1-.76,1.46-1.8,1C504.49,469.32,504.76,468.28,506.36,468.28ZM502.54,444c.63.49.9,1.05.76,1.19-.48.48-1.8-.49-1.8-1.33C501.5,443.4,501.91,443.4,502.54,444Zm.49,28c-.7.49-8.48-3-8.48-3.75s2.5-.77,5.07.27S503.93,471.4,503,472Zm-4-28c.2-.41.55-.69.76-.69s.28.28.28.69a.77.77,0,0,1-.77.7C499,444.65,498.86,444.3,499.07,444Zm-4,5.35c1.95-.48,2.23-.48,2.23,0-.07,1.33-1.32,2.44-2.36,2.09C493.51,450.83,493.58,449.72,495.1,449.3Zm1,8.55a6.47,6.47,0,0,0,2.5,1.39c1,0,2.22,2.5,1.74,3.76s-2.09,1.45-2.58.13c-.27-.62.07-1.11.77-1.25s.21-.76-1.88-1.94a10.82,10.82,0,0,1-3.4-2.64C492.88,456.05,494.13,456.25,496.15,457.85Zm-6-5.77c.56-.55,2.36.21,2.36,1s-1.87.83-2.36,0A.84.84,0,0,1,490.1,452.08Zm-.9,2.78c1.25-.41,2.57.21,2.57,1.32a1,1,0,0,1-1,1c-.56,0-1.05.35-1.05.76s-.27.49-.69.28C488,457.57,488.16,455.28,489.2,454.86Zm0,9.39a2.56,2.56,0,0,1,1.18,2c0,1.32,0,1.32-2.71-.07a7.86,7.86,0,0,0-4.87-1c-2.22.49-2.78-.21-1.32-1.67C482.32,462.72,487,463.06,489.2,464.25Zm-7.86,4c0,.34-.48.69-1,.69s-1-.35-1-.69.49-.7,1-.7S481.34,467.86,481.34,468.28Zm1.88-21.13c.84-.83,2.64-.14,2.85,1.18.14.7-.21,1.18-.76,1.18C484.06,449.51,482.6,447.85,483.22,447.15Zm-.83,8.62c.62-1,1.46-.84,2.5.48.83,1.05.83,1.12-.28.7a7.05,7.05,0,0,0-1.94-.49C482.25,456.46,482.18,456.12,482.39,455.77ZM481,453c.55,0,1,.28,1,.69s-.49.7-1,.7-1-.35-1-.7S480.44,453,481,453Zm-2.16,2.78c.63,0,1.12.28,1.12.69a.69.69,0,0,1-.63.7,1.48,1.48,0,0,1-1.11-.7C478,456.05,478.29,455.77,478.84,455.77Zm-1.66-13.9c.41,0,.69.49.69,1s-.28,1-.69,1-.7-.48-.7-1S476.83,441.87,477.18,441.87Zm-3.27.49c-.49-.49.42-1.88,1.25-1.88a.63.63,0,0,1,.63.62C475.79,441.94,474.4,442.84,473.91,442.36Zm1.88,3.68c0-.42.48-.7,1-.7s1,.28,1,.7-.49.69-1,.69S475.79,446.39,475.79,446Zm-1.39,23.28c-.42.28-.7-.49-.7-1.67s.35-2.15.7-2.15.69.76.69,1.66S474.81,469.11,474.4,469.32Zm1.11,3.27c-2.23-1.33,10.49-1.67,13.9-.35.55.21,1,.69,1,1C490.38,474,476.76,473.35,475.51,472.59Zm16.12.76c-.63-1.25-1.95-2.15-4.24-2.92-3.61-1.25-3.75-2.36-.21-1.67,1.18.21,5.14,1.32,8.76,2.44s6.95,2.5,7.36,3.05a2.47,2.47,0,0,0,1.46,1,2.63,2.63,0,0,1,1.67,1.18,11.61,11.61,0,0,0,3.27,2.08c1.18.49,2.22,1.25,2.22,1.67s-.48.56-1.18.28c-1.11-.49-5.07-1.6-15.64-4.52A5.34,5.34,0,0,1,491.63,473.35Zm10.15,11.74c1.52,2.16,1.39,2.78-.42,2.51a3.71,3.71,0,0,1-2.36-1.74c-.42-.91-1-1.39-1.19-1.11s-.48.07-.48-.35C497.33,482.94,500.66,483.5,501.78,485.09Zm-2.37-5c0-.35.49-.49,1-.28s1,.56,1,.7-.49.28-1,.28S499.41,480.51,499.41,480.09Zm-.69,10.42c0,1.12-.28,2.09-.63,2.09-.9,0-1.46-1.88-1-3.13C497.75,487.73,498.72,488.29,498.72,490.51Zm-1,4.8c.62-1,1.52-.77,3.05.9s.91,3-1.25,2.37C498,498.09,497.05,496.35,497.75,495.31Zm3.19-1.74c-2.5-1.74-1.94-4.45.84-4.45,1.25,0,1.46.42,1.46,2.78C503.3,495,503.17,495.1,500.94,493.57Zm-6.11.42c1.39,3.54,1.39,4.17-.14,4.17-1.88,0-2.92-1.39-2.92-3.82C491.77,490.31,493.3,490.17,494.83,494Zm-7.3-4c.83.48,1.39,1.18,1.25,1.6a2.08,2.08,0,0,1-1.6.83c-.69.14-.9,0-.48-.21.69-.28.69-.76.13-1.74C486.21,489.19,486.28,489.12,487.53,490Zm-2.29,5.35c.41-.77,2.36.49,2.36,1.6,0,.35-.63.28-1.39-.14S485,495.73,485.24,495.31Zm.62,3.82c1.6-1.18,3.89-1,4.38.21s-1.53,1.88-3.89,1.25C484.54,500.17,484.54,500.1,485.86,499.13Zm-3.13,2.23c1.33.13,4.8.48,7.72.69,3.47.28,5.77.14,6.81-.35a2.47,2.47,0,0,1,2.64-.14,3.79,3.79,0,0,0,2.78,0c1.25-.41,1.74-.27,2.29.77.84,1.53.91,4,.14,4.45a34.88,34.88,0,0,1-6.6-1.12l-6.05-1.39L490,506.43c-3.2,2.78-6.25,4.31-7.57,3.82a2.24,2.24,0,0,0-2.16.42c-.62.48-1.18.76-1.32.62a31.08,31.08,0,0,1-.76-4.93C477.66,501.15,478,500.8,482.73,501.36Zm-7.22,15.49a.75.75,0,1,1,.21,1A.7.7,0,0,1,475.51,516.85Zm2.71,4.66c1.6,1.6.9,2.71-1.6,2.64L474.4,524l1.39,1.81c1,1.25,1.18,2,.69,2.5-1.18,1.18-3.06-.49-3.34-2.78a6.37,6.37,0,0,0-1-2.85,1.54,1.54,0,0,1-.21-1.6C472.66,520,477,520.26,478.22,521.51ZM470,501.15a1.4,1.4,0,0,1,.07,1.32c-.21.55-.42.34-.42-.42S469.74,500.87,470,501.15Zm.48,10.56a7.24,7.24,0,0,1,2.23,1.18c.48.42.14,1.11-1,2-1.88,1.53-2.85.9-2.85-2C468.84,511.5,469.11,511.36,470.43,511.71ZM464,513.45c.42,0,.7.48.7,1.11s-.28.83-.7.62a1.45,1.45,0,0,1-.69-1.11A.68.68,0,0,1,464,513.45ZM442.15,510c-.56-.83.28-1.46,1.81-1.46a1.18,1.18,0,0,1,1.25,1.05C445.21,510.74,442.78,511.08,442.15,510Z" transform="translate(-29.88 -135.26)"></path> <path d="M391.35,659.31A311.68,311.68,0,0,1,348,500.21c0-173,140.23-313.2,313.2-313.2s313.19,140.22,313.19,313.2A311.67,311.67,0,0,1,931,659.31h58.72a363.52,363.52,0,0,0,36.42-159.1c0-201.56-163.39-364.95-364.94-364.95s-364.94,163.39-364.94,365a363.52,363.52,0,0,0,36.42,159.1Z" transform="translate(-29.88 -135.26)"></path> <g> <path d="M168.6,850.63q-22.33,0-37.42-9.52-4.69-3-4.69-7.77a9.83,9.83,0,0,1,3-7.06,9.63,9.63,0,0,1,7.14-3.12,11.09,11.09,0,0,1,5.86,1.76q10,6.38,26.07,6.37,8.64,0,16.85-8.57a38,38,0,0,0,10-17.87q-13.18-.44-20.22-.44-7.4,0-11,1.25a11.57,11.57,0,0,1-3.81.66,9.1,9.1,0,0,1-7.1-3.23,9.77,9.77,0,0,1-2.71-6.88q0-6.53,6.84-8.86T175.19,785q2.72,0,19,.44-3.15-11.79-10.54-18.67a28.67,28.67,0,0,0-20.14-7.55q-11.8,0-17.73,4.32a10.47,10.47,0,0,1-6.3,2.2,9.92,9.92,0,0,1-7.25-3.07,9.7,9.7,0,0,1-3.07-7c0-2.93,1.36-5.39,4.1-7.39q11.49-8.43,30.25-8.43,25,0,39.77,19,13.19,17,13.18,41,0,17.94-13.92,33.91Q187.72,850.63,168.6,850.63Z" transform="translate(-29.88 -135.26)"></path> <path d="M322,771.67q-6.58,0-9.74-6.95c-1-2.2-1.95-3.52-2.93-4q-1.09-.51-5.79-.51-9.23,0-21.31,14.35-16.92,20.07-16.92,37.58a19.31,19.31,0,0,0,5.35,13.69,16.93,16.93,0,0,0,12.82,5.72,32.23,32.23,0,0,0,14.72-3.81q2.63-1.39,11.13-7.18,5.71-3.81,8.64-3.81a10,10,0,0,1,7.47,3.22,9.53,9.53,0,0,1-.95,14.43q-20.14,17-41,17a36.82,36.82,0,0,1-27.84-12,38.55,38.55,0,0,1-10.84-27.24q0-24.54,21.46-50.1,18.24-21.68,37.28-21.68,3.22,0,5.83.22a35.68,35.68,0,0,1,4.57.66,10.72,10.72,0,0,1,7.77-3.15q7.47,0,9.23,8.57a73.11,73.11,0,0,1,1.24,14.35,11.31,11.31,0,0,1-2.12,6.67A9.24,9.24,0,0,1,322,771.67Z" transform="translate(-29.88 -135.26)"></path> <path d="M435.19,850.56q-7.19,0-9.82-7.55-3.36-9.59-13.91-24.83-13.26-19-21.9-19h-5.28q0,3.66-.07,11.79-.07,7.62-.07,12.09c0,.78.06,2.37.18,4.76s.18,4.29.18,5.71q0,17.35-10.91,17.36a10.58,10.58,0,0,1-7.29-2.64,8.79,8.79,0,0,1-3-6.88q0-5.21.44-15.68t.44-15.67q0-9.88-.74-29.59t-.73-29.59q0-13.77,10.47-13.77a10.18,10.18,0,0,1,7.29,2.75,9.14,9.14,0,0,1,2.9,6.92q0,7.47.73,32.59,10-1.32,16.62-11.79,5.36-9.22,10.7-18.53a22.74,22.74,0,0,1,19-9.6,17.73,17.73,0,0,1,7.84,2q4.83,2.42,4.83,5.93a9.2,9.2,0,0,1-1.76,5.42,6,6,0,0,1-5.05,2.79q-5.79,0-12.16,14.79-5.34,12.45-15.38,18,11.71,7.85,24.24,25.74t12.53,27.07a8.5,8.5,0,0,1-3.15,6.77A10.85,10.85,0,0,1,435.19,850.56Z" transform="translate(-29.88 -135.26)"></path> <path d="M637.32,777.53q-7.77,7.19-22.12,22.49Q604.15,813.49,591,831.37q-3.66,5.11-11.13,15.3-3.67,4.77-8.57,4.76a10.92,10.92,0,0,1-8-3,9.44,9.44,0,0,1-2.78-7.66q2.57-42.11,2.56-46.87,0-19.12-.8-35.45c-.05-.78-.2-2.74-.44-5.86-.2-2.44-.29-4.42-.29-5.94a9.23,9.23,0,0,1,2.89-7,10.91,10.91,0,0,1,14.57,0,9.24,9.24,0,0,1,2.9,7c0,1.42.12,3.28.36,5.57.25,2.83.39,4.66.44,5.49q.45,9.83.44,24.39,0,11.73-.51,23.08a319.12,319.12,0,0,1,38.45-41.61,84.05,84.05,0,0,0,8.86-10q6.22-8.06,8.43-10.47,2-6.75,9.67-6.74a10.71,10.71,0,0,1,7.36,2.63,8.81,8.81,0,0,1,3,6.89q0,4.54-.36,13.59t-.37,13.51q0,5.13-.15,15.42t-.14,15.41q0,6.68-.55,20t-.55,20.07a9.12,9.12,0,0,1-2.93,6.88,10.1,10.1,0,0,1-7.25,2.79,10.23,10.23,0,0,1-7.33-2.79,9.12,9.12,0,0,1-2.93-6.88q0-6.81.55-20.33t.55-20.25q0-4.9.15-12.89Q637.33,780.39,637.32,777.53Z" transform="translate(-29.88 -135.26)"></path> <path d="M753.73,852.39a10.39,10.39,0,0,1-7.32-2.71,8.87,8.87,0,0,1-2.93-6.81q0-6.37-.3-22.86h-2.41a146.39,146.39,0,0,0-30.55,3.15c-.05,1.91-.31,5.35-.8,10.33q-.58,6.38-.59,10.51a9,9,0,0,1-2.89,6.85,11.16,11.16,0,0,1-14.58,0,9,9,0,0,1-2.89-6.89,44.1,44.1,0,0,1,.7-6.77,45.26,45.26,0,0,0,.69-6.78q0-4.1-.22-12.34t-.22-12.34V793q.08-8.43.08-12.75a8.94,8.94,0,0,1,2.89-6.81,10.28,10.28,0,0,1,7.29-2.71,10.39,10.39,0,0,1,7.32,2.71,8.91,8.91,0,0,1,2.93,6.81c0,3.13.05,7,.15,11.72.14,6.5.22,10.35.22,11.57A157.15,157.15,0,0,1,742.89,801v-1.61q0-3.74.29-10.69t.3-10.55a8.84,8.84,0,0,1,2.93-6.81,10.34,10.34,0,0,1,7.32-2.71,10.23,10.23,0,0,1,7.29,2.71,8.91,8.91,0,0,1,2.89,6.81q0,3.66-.29,10.62t-.3,10.62q0,7.47.3,21.75t.29,21.76a8.94,8.94,0,0,1-2.89,6.81A10.28,10.28,0,0,1,753.73,852.39Z" transform="translate(-29.88 -135.26)"></path> <path d="M807.44,853.05a11.26,11.26,0,0,1-7.32-2.79q-3.66-2.93-3.66-6.81V830.56q0-8.2.29-21.46.43-17.36.44-21.39a26.71,26.71,0,0,1,.95-7.91,7.87,7.87,0,0,1,5.86-5.2q6.3-1.68,18-1.68a46.4,46.4,0,0,1,22.85,5.71q12.68,6.89,12.67,18.83,0,8.85-8,14.06,13.39,8.49,13.4,17.87,0,13.33-21.9,19.48A123.31,123.31,0,0,1,807.44,853.05ZM829.64,818q-1.62-.29-13.48-.66Q816,820,816,825.21v10.4q26.52-1.17,26.52-6.81,0-3.15-5-6.81A20.91,20.91,0,0,0,829.64,818Zm-5.2-27.83h-3c-1.85,0-3.41,0-4.68.07v4.91c0,1,.07,2.64.22,5,.19,2.74.29,4.4.29,5,2,.15,3.59.22,4.61.22a30.09,30.09,0,0,0,9.67-1.61q6.38-2.19,6.37-6.22c0-1.62-1.53-3.24-4.61-4.88A19,19,0,0,0,824.44,790.13Z" transform="translate(-29.88 -135.26)"></path> <path d="M929.71,853.05q-17.51,0-28.63-8.35-12.32-9.24-12.31-26,0-18.54,9.74-31.35,10.85-14.21,29.23-14.21,12.74,0,21.16,4.1Q960,782.66,960,794.09q0,8.05-9,14.28-4.1,2.85-16.48,8.35l-24.68,10.91a22.21,22.21,0,0,0,8.5,5.71,31.83,31.83,0,0,0,11.42,1.91q9.82,0,16.63-4,6.07-3.59,9.74-3.59,7.62,0,7.62,7.4,0,8.34-12.23,13.62A54.67,54.67,0,0,1,929.71,853.05Zm-2-62.19a16.44,16.44,0,0,0-11.65,4.54q-4.83,4.54-7.76,13.63,8.26-3.59,16.48-7.11a119.79,119.79,0,0,0,15.74-8.27Q935.65,790.86,927.74,790.86Z" transform="translate(-29.88 -135.26)"></path> <path d="M1030.3,854.29q-16.11,0-27-9.15-11.5-9.67-11.5-25.49,0-14.58,10.32-30.11,11.73-17.71,27.25-17.72,7.62,0,17.8,4.1,12.38,5.05,12.38,11.65a9.29,9.29,0,0,1-2.49,6.37,8.66,8.66,0,0,1-6.82,3c-2.1,0-4.62-1.13-7.58-3.4s-7.38-3.41-13.29-3.41q-5.64,0-12.23,11.06-6.3,10.69-6.3,18.46a14.56,14.56,0,0,0,5.57,12.08q5.26,4.18,13.91,4.18,4.9,0,12-3.74t9-3.73a9.2,9.2,0,0,1,6.78,2.85,9,9,0,0,1,2.82,6.52q0,5.72-12.45,11.43Q1037.32,854.3,1030.3,854.29Z" transform="translate(-29.88 -135.26)"></path> <path d="M1145.32,791.74c-1.32,0-3.28-.06-5.9-.18s-4.57-.18-5.89-.18a21.45,21.45,0,0,0-2.42.14q1.55,32.9,1.54,46.44,0,16.41-10.69,16.4a10.77,10.77,0,0,1-7-2.41,8,8,0,0,1-3.22-6.52q0-2.56.22-7.8c.14-3.49.22-6.09.22-7.8q0-10-1.32-38h-6.52q-7.47,0-10.91-1.4-5.51-2.19-5.5-8.42a9.62,9.62,0,0,1,2.75-6.85,9.39,9.39,0,0,1,7.14-2.89h43.29q14.28,0,14.28,9.81a9.3,9.3,0,0,1-2.82,6.89A9.92,9.92,0,0,1,1145.32,791.74Z" transform="translate(-29.88 -135.26)"></path> </g> <polygon points="2.68 525.77 1239.79 525.77 1239.79 523.74 0.26 523.74 0.26 772.97 2.68 772.97 2.68 525.77"></polygon> <polygon points="1237.11 780.84 0 780.84 0 782.87 1239.53 782.87 1239.53 533.68 1237.11 533.68 1237.11 780.84"></polygon> <polygon points="14.02 771.11 1228.59 771.11 1228.59 772.97 11.65 772.97 11.65 544.26 14.02 544.26 14.02 771.11"></polygon> <polygon points="1227.98 534.5 13.06 534.5 13.06 532.62 1230.35 532.62 1230.35 763.44 1227.98 763.44 1227.98 534.5"></polygon> </svg> 